<svg width="17" height="17" viewBox="0 0 17 17" fill="none" xmlns="http://www.w3.org/2000/svg">
<g clip-path="url(#clip0_916_59303)">
<path d="M16.3333 8.5C16.3333 4.08172 12.7515 0.5 8.33325 0.5C3.91497 0.5 0.333252 4.08172 0.333252 8.5C0.333252 12.493 3.25872 15.8027 7.08325 16.4028V10.8125H5.052V8.5H7.08325V6.7375C7.08325 4.7325 8.27763 3.625 10.105 3.625C10.98 3.625 11.8958 3.78125 11.8958 3.78125V5.75H10.887C9.89325 5.75 9.58325 6.36672 9.58325 7V8.5H11.802L11.4473 10.8125H9.58325V16.4028C13.4078 15.8027 16.3333 12.493 16.3333 8.5Z" fill="#1877F2"/>
<path d="M11.4473 10.8125L11.802 8.5H9.58325V7C9.58325 6.36734 9.89325 5.75 10.887 5.75H11.8958V3.78125C11.8958 3.78125 10.9803 3.625 10.105 3.625C8.27763 3.625 7.08325 4.7325 7.08325 6.7375V8.5H5.052V10.8125H7.08325V16.4028C7.91155 16.5324 8.75496 16.5324 9.58325 16.4028V10.8125H11.4473Z" fill="white"/>
</g>
<defs>
<clipPath id="clip0_916_59303">
<rect width="16" height="16" fill="white" transform="translate(0.333252 0.5)"/>
</clipPath>
</defs>
</svg>
