<svg width="17" height="17" viewBox="0 0 17 17" fill="none" xmlns="http://www.w3.org/2000/svg">
<path d="M12.9167 0.5H4.41675C2.34568 0.5 0.666748 2.17893 0.666748 4.25V12.75C0.666748 14.8211 2.34568 16.5 4.41675 16.5H12.9167C14.9878 16.5 16.6667 14.8211 16.6667 12.75V4.25C16.6667 2.17893 14.9878 0.5 12.9167 0.5Z" fill="url(#paint0_radial_916_59266)"/>
<path d="M12.9167 0.5H4.41675C2.34568 0.5 0.666748 2.17893 0.666748 4.25V12.75C0.666748 14.8211 2.34568 16.5 4.41675 16.5H12.9167C14.9878 16.5 16.6667 14.8211 16.6667 12.75V4.25C16.6667 2.17893 14.9878 0.5 12.9167 0.5Z" fill="url(#paint1_radial_916_59266)"/>
<path d="M8.66731 2.25C6.96994 2.25 6.75687 2.25744 6.09025 2.28775C5.42487 2.31825 4.97069 2.42356 4.57331 2.57812C4.16219 2.73775 3.8135 2.95131 3.46612 3.29881C3.11844 3.64625 2.90487 3.99494 2.74475 4.40587C2.58975 4.80338 2.48431 5.25775 2.45437 5.92281C2.42456 6.5895 2.41675 6.80263 2.41675 8.50006C2.41675 10.1975 2.42425 10.4099 2.4545 11.0765C2.48512 11.7419 2.59044 12.1961 2.74487 12.5934C2.90462 13.0046 3.11819 13.3533 3.46569 13.7006C3.813 14.0483 4.16169 14.2624 4.5725 14.422C4.97019 14.5766 5.42444 14.6819 6.08969 14.7124C6.75637 14.7427 6.96925 14.7501 8.66656 14.7501C10.3641 14.7501 10.5765 14.7427 11.2431 14.7124C11.9085 14.6819 12.3632 14.5766 12.7609 14.422C13.1718 14.2624 13.52 14.0483 13.8672 13.7006C14.2149 13.3533 14.4284 13.0046 14.5886 12.5936C14.7422 12.1961 14.8477 11.7417 14.879 11.0766C14.9089 10.41 14.9167 10.1975 14.9167 8.50006C14.9167 6.80263 14.9089 6.58962 14.879 5.92294C14.8477 5.25756 14.7422 4.80344 14.5886 4.40606C14.4284 3.99494 14.2149 3.64625 13.8672 3.29881C13.5196 2.95119 13.1719 2.73762 12.7605 2.57819C12.3621 2.42356 11.9076 2.31819 11.2422 2.28775C10.5756 2.25744 10.3633 2.25 8.66537 2.25H8.66731ZM8.10662 3.37631C8.27306 3.37606 8.45875 3.37631 8.66731 3.37631C10.3361 3.37631 10.5339 3.38231 11.1929 3.41225C11.8022 3.44012 12.133 3.54194 12.3533 3.6275C12.645 3.74075 12.8529 3.87619 13.0716 4.095C13.2903 4.31375 13.4257 4.52206 13.5392 4.81375C13.6248 5.03375 13.7267 5.3645 13.7545 5.97388C13.7844 6.63275 13.7909 6.83062 13.7909 8.49862C13.7909 10.1666 13.7844 10.3646 13.7545 11.0234C13.7266 11.6327 13.6248 11.9635 13.5392 12.1836C13.426 12.4753 13.2903 12.6829 13.0716 12.9016C12.8528 13.1203 12.6451 13.2557 12.3533 13.369C12.1332 13.4549 11.8022 13.5565 11.1929 13.5844C10.534 13.6143 10.3361 13.6208 8.66731 13.6208C6.99844 13.6208 6.80062 13.6143 6.14181 13.5844C5.53244 13.5563 5.20169 13.4544 4.98119 13.3689C4.68956 13.2556 4.48119 13.1202 4.26244 12.9014C4.04369 12.6827 3.90831 12.4749 3.79475 12.1831C3.70919 11.963 3.60725 11.6322 3.5795 11.0229C3.54956 10.364 3.54356 10.1661 3.54356 8.49706C3.54356 6.828 3.54956 6.63119 3.5795 5.97231C3.60737 5.36294 3.70919 5.03219 3.79475 4.81187C3.90806 4.52019 4.04369 4.31188 4.2625 4.09313C4.48131 3.87438 4.68956 3.73894 4.98125 3.62544C5.20156 3.5395 5.53244 3.43794 6.14181 3.40994C6.71837 3.38387 6.94181 3.37606 8.10662 3.37475V3.37631ZM12.0036 4.41406C11.5895 4.41406 11.2536 4.74969 11.2536 5.16381C11.2536 5.57788 11.5895 5.91381 12.0036 5.91381C12.4176 5.91381 12.7536 5.57788 12.7536 5.16381C12.7536 4.74975 12.4176 4.41381 12.0036 4.41381V4.41406ZM8.66731 5.29038C6.89481 5.29038 5.45769 6.7275 5.45769 8.50006C5.45769 10.2726 6.89481 11.7091 8.66731 11.7091C10.4399 11.7091 11.8765 10.2726 11.8765 8.50006C11.8765 6.72756 10.4397 5.29038 8.66719 5.29038H8.66731ZM8.66731 6.41669C9.81787 6.41669 10.7507 7.34938 10.7507 8.50006C10.7507 9.65063 9.81787 10.5834 8.66731 10.5834C7.51675 10.5834 6.584 9.65063 6.584 8.50006C6.584 7.34938 7.51669 6.41669 8.66731 6.41669Z" fill="white"/>
<defs>
<radialGradient id="paint0_radial_916_59266" cx="0" cy="0" r="1" gradientUnits="userSpaceOnUse" gradientTransform="translate(4.91675 17.7323) rotate(-90) scale(15.8572 14.7484)">
<stop stop-color="#FFDD55"/>
<stop offset="0.1" stop-color="#FFDD55"/>
<stop offset="0.5" stop-color="#FF543E"/>
<stop offset="1" stop-color="#C837AB"/>
</radialGradient>
<radialGradient id="paint1_radial_916_59266" cx="0" cy="0" r="1" gradientUnits="userSpaceOnUse" gradientTransform="translate(-2.01331 1.65256) rotate(78.681) scale(7.08825 29.218)">
<stop stop-color="#3771C8"/>
<stop offset="0.128" stop-color="#3771C8"/>
<stop offset="1" stop-color="#6600FF" stop-opacity="0"/>
</radialGradient>
</defs>
</svg>
