<svg width="15" height="17" viewBox="0 0 15 17" fill="none" xmlns="http://www.w3.org/2000/svg">
<g clip-path="url(#clip0_916_59275)">
<path d="M10.8005 6.25948C11.831 6.99575 13.0934 7.42897 14.4569 7.42897V4.80662C14.1988 4.80672 13.9415 4.7798 13.689 4.72629V6.79046C12.3256 6.79046 11.0633 6.3573 10.0326 5.62108V10.9726C10.0326 13.6497 7.86125 15.8198 5.18296 15.8198C4.18362 15.8198 3.25474 15.5178 2.48315 14.9999C3.36382 15.8999 4.59195 16.4582 5.95063 16.4582C8.62914 16.4582 10.8006 14.2882 10.8006 11.6109V6.25948H10.8005ZM11.7478 3.61385C11.2211 3.03879 10.8753 2.29562 10.8005 1.47399V1.13672H10.0728C10.256 2.18097 10.8808 3.07311 11.7478 3.61385ZM4.17717 12.9456C3.8829 12.56 3.72384 12.0883 3.72459 11.6033C3.72459 10.3789 4.71775 9.3861 5.94307 9.3861C6.17139 9.38597 6.39836 9.42101 6.61601 9.48999V6.80899C6.36166 6.77418 6.105 6.75934 5.84845 6.7648V8.85153C5.63069 8.78254 5.40361 8.74752 5.17518 8.7477C3.94991 8.7477 2.95681 9.74036 2.95681 10.9649C2.95681 11.8308 3.4532 12.5804 4.17717 12.9456Z" fill="#FF004F"/>
<path d="M10.0327 5.62102C11.0635 6.35724 12.3257 6.7904 13.6891 6.7904V4.72624C12.9281 4.56419 12.2543 4.16673 11.7478 3.61385C10.8808 3.07305 10.2561 2.18091 10.0729 1.13672H8.16154V11.6108C8.15718 12.8319 7.16574 13.8206 5.94306 13.8206C5.22262 13.8206 4.58251 13.4774 4.17716 12.9455C3.45329 12.5804 2.95685 11.8307 2.95685 10.965C2.95685 9.74053 3.94996 8.74775 5.17523 8.74775C5.40998 8.74775 5.63625 8.78428 5.84849 8.85159V6.76486C3.21721 6.8192 1.10107 8.96806 1.10107 11.6109C1.10107 12.9302 1.62803 14.1261 2.48331 15C3.25489 15.5178 4.18372 15.8199 5.18312 15.8199C7.86146 15.8199 10.0328 13.6497 10.0328 10.9726L10.0327 5.62102Z" fill="black"/>
<path d="M13.6891 4.72786V4.16985C13.0028 4.17084 12.3301 3.97875 11.7478 3.61553C12.2632 4.17951 12.9419 4.56843 13.6891 4.72797M10.0728 1.13834C10.0554 1.03857 10.042 0.938129 10.0327 0.837269V0.5H7.39356V10.9742C7.38936 12.1952 6.39791 13.1839 5.17518 13.1839C4.82855 13.1844 4.48665 13.1034 4.17711 12.9473C4.58247 13.479 5.22258 13.8222 5.94302 13.8222C7.16564 13.8222 8.1572 12.8336 8.1615 11.6126V1.1384L10.0728 1.13834ZM5.84862 6.76648V6.17233C5.62809 6.14222 5.40576 6.12714 5.18318 6.1272C2.50456 6.1272 0.333252 8.29735 0.333252 10.9742C0.333252 12.6525 1.1866 14.1316 2.48338 15.0016C1.62809 14.1278 1.10114 12.9317 1.10114 11.6125C1.10114 8.96974 3.21722 6.82083 5.84862 6.76648Z" fill="#00F2EA"/>
</g>
<defs>
<clipPath id="clip0_916_59275">
<rect width="14.1241" height="16" fill="white" transform="translate(0.333252 0.5)"/>
</clipPath>
</defs>
</svg>
