<svg width="16" height="17" viewBox="0 0 16 17" fill="none" xmlns="http://www.w3.org/2000/svg">
<g clip-path="url(#clip0_916_59285)">
<path d="M0.338778 8.4055C0.338406 9.74981 0.689662 11.0624 1.35757 12.2194L0.274902 16.1724L4.3203 15.1117C5.43921 15.7208 6.69285 16.0399 7.96681 16.04H7.97016C12.1757 16.04 15.5992 12.6178 15.601 8.41151C15.6018 6.37325 14.8087 4.4566 13.3679 3.01462C11.9272 1.57275 10.0113 0.778274 7.96985 0.777344C3.76377 0.777344 0.340577 4.19936 0.33884 8.4055" fill="url(#paint0_linear_916_59285)"/>
<path d="M0.0663566 8.40177C0.0659225 9.79445 0.429767 11.154 1.12149 12.3524L0 16.4471L4.19045 15.3484C5.34505 15.9779 6.64502 16.3098 7.96781 16.3103H7.97122C12.3277 16.3103 15.8741 12.765 15.876 8.40809C15.8767 6.29659 15.0551 4.31104 13.5628 2.8174C12.0703 1.32394 10.0858 0.500868 7.97122 0.5C3.61402 0.5 0.068093 4.04481 0.0663566 8.40177ZM2.56192 12.146L2.40546 11.8976C1.74772 10.8518 1.40056 9.64326 1.40105 8.40226C1.40242 4.78087 4.34964 1.83457 7.97371 1.83457C9.72874 1.83532 11.3781 2.51947 12.6187 3.76078C13.8592 5.0022 14.5418 6.65243 14.5413 8.4076C14.5397 12.029 11.5924 14.9757 7.97122 14.9757H7.96862C6.78952 14.975 5.63312 14.6584 4.62462 14.06L4.38462 13.9177L1.89792 14.5696L2.56192 12.146Z" fill="url(#paint1_linear_916_59285)"/>
<path d="M5.99552 5.09977C5.84755 4.77091 5.69183 4.76427 5.55112 4.7585C5.43589 4.75354 5.30417 4.75391 5.17257 4.75391C5.04085 4.75391 4.82684 4.80346 4.64594 5.00098C4.46485 5.19869 3.95459 5.67646 3.95459 6.64818C3.95459 7.6199 4.66237 8.55906 4.76104 8.69097C4.85983 8.82263 6.12743 10.8805 8.13499 11.6722C9.80346 12.3302 10.143 12.1993 10.5051 12.1663C10.8673 12.1334 11.6737 11.6887 11.8382 11.2275C12.0029 10.7663 12.0029 10.371 11.9535 10.2884C11.9042 10.2061 11.7724 10.1567 11.5749 10.058C11.3774 9.95925 10.4063 9.48135 10.2253 9.41543C10.0442 9.34957 9.91254 9.3167 9.78082 9.51447C9.6491 9.71193 9.27087 10.1567 9.15558 10.2884C9.04042 10.4205 8.92513 10.4369 8.72767 10.3381C8.53003 10.239 7.89394 10.0307 7.13927 9.35788C6.55211 8.83435 6.15571 8.18783 6.04048 7.99007C5.92526 7.79261 6.02814 7.68557 6.12718 7.58715C6.21592 7.49866 6.32476 7.35652 6.42361 7.24123C6.52209 7.12588 6.55496 7.04359 6.62082 6.91187C6.68674 6.78002 6.65375 6.66467 6.60445 6.56588C6.55496 6.46709 6.17115 5.49028 5.99552 5.09977Z" fill="white"/>
</g>
<defs>
<linearGradient id="paint0_linear_916_59285" x1="766.579" y1="1540.28" x2="766.579" y2="0.777344" gradientUnits="userSpaceOnUse">
<stop stop-color="#1FAF38"/>
<stop offset="1" stop-color="#60D669"/>
</linearGradient>
<linearGradient id="paint1_linear_916_59285" x1="793.798" y1="1595.21" x2="793.798" y2="0.5" gradientUnits="userSpaceOnUse">
<stop stop-color="#F9F9F9"/>
<stop offset="1" stop-color="white"/>
</linearGradient>
<clipPath id="clip0_916_59285">
<rect width="15.876" height="16" fill="white" transform="translate(0 0.5)"/>
</clipPath>
</defs>
</svg>
