<svg width="16" height="17" viewBox="0 0 16 17" fill="none" xmlns="http://www.w3.org/2000/svg">
<g clip-path="url(#clip0_916_59260)">
<path d="M15.6813 4.62328C15.5909 4.28289 15.4126 3.97223 15.1643 3.72239C14.9161 3.47254 14.6066 3.29228 14.2668 3.19964C13.0159 2.86328 8.01587 2.86328 8.01587 2.86328C8.01587 2.86328 3.01587 2.86328 1.76496 3.19964C1.42516 3.29228 1.11564 3.47254 0.867394 3.72239C0.619147 3.97223 0.440873 4.28289 0.350415 4.62328C0.0158692 5.87964 0.0158691 8.49964 0.0158691 8.49964C0.0158691 8.49964 0.0158692 11.1196 0.350415 12.376C0.440873 12.7164 0.619147 13.0271 0.867394 13.2769C1.11564 13.5267 1.42516 13.707 1.76496 13.7996C3.01587 14.136 8.01587 14.136 8.01587 14.136C8.01587 14.136 13.0159 14.136 14.2668 13.7996C14.6066 13.707 14.9161 13.5267 15.1643 13.2769C15.4126 13.0271 15.5909 12.7164 15.6813 12.376C16.0159 11.1196 16.0159 8.49964 16.0159 8.49964C16.0159 8.49964 16.0159 5.87964 15.6813 4.62328Z" fill="#FF0302"/>
<path d="M6.37939 10.8793V6.12109L10.5612 8.50018L6.37939 10.8793Z" fill="#FEFEFE"/>
</g>
<defs>
<clipPath id="clip0_916_59260">
<rect width="16" height="16" fill="white" transform="translate(0 0.5)"/>
</clipPath>
</defs>
</svg>
