<svg width="14" height="23" viewBox="0 0 14 23" fill="none" xmlns="http://www.w3.org/2000/svg">
<path d="M11.7778 7.05556C11.5566 6.42804 11.1527 5.88107 10.6181 5.48504C10.0834 5.08901 9.4425 4.86203 8.77778 4.83333H4.33333C3.44928 4.83333 2.60143 5.18452 1.97631 5.80964C1.35119 6.43477 1 7.28261 1 8.16667C1 9.05072 1.35119 9.89857 1.97631 10.5237C2.60143 11.1488 3.44928 11.5 4.33333 11.5H8.77778C9.66183 11.5 10.5097 11.8512 11.1348 12.4763C11.7599 13.1014 12.1111 13.9493 12.1111 14.8333C12.1111 15.7174 11.7599 16.5652 11.1348 17.1904C10.5097 17.8155 9.66183 18.1667 8.77778 18.1667H4.33333C3.66861 18.138 3.02768 17.911 2.49303 17.515C1.95839 17.1189 1.5545 16.572 1.33333 15.9444M6.55556 1.5V4.83333M6.55556 18.1667V21.5" stroke="#6D7486" stroke-opacity="0.7" stroke-width="2" stroke-linecap="round" stroke-linejoin="round"/>
</svg>
