<svg width="20" height="21" viewBox="0 0 20 21" fill="none" xmlns="http://www.w3.org/2000/svg">
<path fill-rule="evenodd" clip-rule="evenodd" d="M11.6763 2.81627C11.2488 1.06124 8.75121 1.06124 8.3237 2.81627C8.25987 3.07999 8.13468 3.32492 7.95831 3.53112C7.78194 3.73732 7.55938 3.89897 7.30874 4.00291C7.0581 4.10684 6.78646 4.15014 6.51592 4.12927C6.24538 4.10839 5.9836 4.02394 5.75187 3.88279C4.20832 2.94227 2.44201 4.70855 3.38254 6.25207C3.99006 7.24884 3.45117 8.54936 2.31713 8.82499C0.560955 9.25137 0.560955 11.75 2.31713 12.1753C2.58093 12.2392 2.8259 12.3645 3.03211 12.541C3.23831 12.7175 3.39991 12.9402 3.50375 13.191C3.6076 13.4418 3.65074 13.7135 3.62968 13.9841C3.60862 14.2547 3.52394 14.5165 3.38254 14.7482C2.44201 16.2917 4.20832 18.058 5.75187 17.1175C5.98356 16.9761 6.24536 16.8914 6.51597 16.8704C6.78658 16.8493 7.05834 16.8924 7.30912 16.9963C7.5599 17.1001 7.7826 17.2617 7.95911 17.4679C8.13561 17.6741 8.26091 17.9191 8.32482 18.1829C8.75121 19.939 11.2499 19.939 11.6752 18.1829C11.7393 17.9192 11.8647 17.6744 12.0413 17.4684C12.2178 17.2623 12.4405 17.1008 12.6912 16.997C12.9419 16.8932 13.2135 16.85 13.4841 16.8709C13.7546 16.8919 14.0164 16.9764 14.2481 17.1175C15.7917 18.058 17.558 16.2917 16.6175 14.7482C16.4763 14.5165 16.3918 14.2547 16.3709 13.9842C16.35 13.7136 16.3932 13.442 16.497 13.1913C16.6008 12.9406 16.7623 12.7179 16.9683 12.5414C17.1744 12.3648 17.4192 12.2394 17.6829 12.1753C19.439 11.7489 19.439 9.25025 17.6829 8.82499C17.4191 8.76108 17.1741 8.63578 16.9679 8.45928C16.7617 8.28278 16.6001 8.06007 16.4962 7.8093C16.3924 7.55853 16.3493 7.28677 16.3703 7.01617C16.3914 6.74556 16.4761 6.48376 16.6175 6.25207C17.558 4.70855 15.7917 2.94227 14.2481 3.88279C14.0164 4.02418 13.7546 4.10886 13.484 4.12992C13.2134 4.15098 12.9417 4.10784 12.6909 4.004C12.4401 3.90016 12.2174 3.73856 12.0409 3.53236C11.8644 3.32616 11.7391 3.08119 11.6752 2.8174L11.6763 2.81627Z" stroke="#6D7486" stroke-opacity="0.7" stroke-width="1.6"/>
<path d="M12 10.5C12 11.6046 11.1046 12.5 10 12.5C8.89543 12.5 8 11.6046 8 10.5C8 9.39543 8.89543 8.5 10 8.5C11.1046 8.5 12 9.39543 12 10.5Z" stroke="#6D7486" stroke-opacity="0.7" stroke-width="1.6"/>
</svg>
