<svg width="18" height="19" viewBox="0 0 18 19" fill="none" xmlns="http://www.w3.org/2000/svg">
<path d="M9 8C10.6569 8 12 6.65685 12 5C12 3.34315 10.6569 2 9 2C7.34315 2 6 3.34315 6 5C6 6.65685 7.34315 8 9 8Z" stroke="url(#paint0_linear_3621_26198)" stroke-width="1.5"/>
<path d="M9 8C10.6569 8 12 6.65685 12 5C12 3.34315 10.6569 2 9 2C7.34315 2 6 3.34315 6 5C6 6.65685 7.34315 8 9 8Z" stroke="url(#paint1_radial_3621_26198)" stroke-width="1.5"/>
<path d="M15 13.625C15 15.4887 15 17 9 17C3 17 3 15.4887 3 13.625C3 11.7613 5.6865 10.25 9 10.25C12.3135 10.25 15 11.7613 15 13.625Z" stroke="url(#paint2_linear_3621_26198)" stroke-width="1.5"/>
<path d="M15 13.625C15 15.4887 15 17 9 17C3 17 3 15.4887 3 13.625C3 11.7613 5.6865 10.25 9 10.25C12.3135 10.25 15 11.7613 15 13.625Z" stroke="url(#paint3_radial_3621_26198)" stroke-width="1.5"/>
<defs>
<linearGradient id="paint0_linear_3621_26198" x1="9.01891" y1="2.66" x2="7.47364" y2="7.31311" gradientUnits="userSpaceOnUse">
<stop offset="0.0192796" stop-color="#2E78E9"/>
<stop offset="0.972407" stop-color="#2863FA"/>
</linearGradient>
<radialGradient id="paint1_radial_3621_26198" cx="0" cy="0" r="1" gradientUnits="userSpaceOnUse" gradientTransform="translate(8.98109 7.46) rotate(-90.1047) scale(6.90001 5.89431)">
<stop stop-color="white" stop-opacity="0"/>
<stop offset="1" stop-color="white" stop-opacity="0.1"/>
</radialGradient>
<linearGradient id="paint2_linear_3621_26198" x1="9.03782" y1="10.9925" x2="7.98871" y2="16.6086" gradientUnits="userSpaceOnUse">
<stop offset="0.0192796" stop-color="#2E78E9"/>
<stop offset="0.972407" stop-color="#2863FA"/>
</linearGradient>
<radialGradient id="paint3_radial_3621_26198" cx="0" cy="0" r="1" gradientUnits="userSpaceOnUse" gradientTransform="translate(8.96218 16.3925) rotate(-90.1861) scale(7.76254 11.7886)">
<stop stop-color="white" stop-opacity="0"/>
<stop offset="1" stop-color="white" stop-opacity="0.1"/>
</radialGradient>
</defs>
</svg>
