<svg width="18" height="19" viewBox="0 0 18 19" fill="none" xmlns="http://www.w3.org/2000/svg">
<path d="M13.6875 3.5C13.8367 3.5 13.9798 3.55926 14.0852 3.66475C14.1907 3.77024 14.25 3.91332 14.25 4.0625V10.4375C14.25 10.5867 14.1907 10.7298 14.0852 10.8352C13.9798 10.9407 13.8367 11 13.6875 11C13.5383 11 13.3952 10.9407 13.2898 10.8352C13.1843 10.7298 13.125 10.5867 13.125 10.4375V4.0625C13.125 3.91332 13.1843 3.77024 13.2898 3.66475C13.3952 3.55926 13.5383 3.5 13.6875 3.5ZM3 14.1875C3 14.0383 3.05926 13.8952 3.16475 13.7898C3.27024 13.6843 3.41332 13.625 3.5625 13.625H9.9375C10.0867 13.625 10.2298 13.6843 10.3352 13.7898C10.4407 13.8952 10.5 14.0383 10.5 14.1875C10.5 14.3367 10.4407 14.4798 10.3352 14.5852C10.2298 14.6907 10.0867 14.75 9.9375 14.75H3.5625C3.41332 14.75 3.27024 14.6907 3.16475 14.5852C3.05926 14.4798 3 14.3367 3 14.1875ZM6.21 5.915C6.10337 5.81564 5.96233 5.76155 5.81661 5.76412C5.67088 5.76669 5.53184 5.82572 5.42878 5.92878C5.32572 6.03184 5.26669 6.17088 5.26412 6.31661C5.26155 6.46233 5.31564 6.60337 5.415 6.71L10.29 11.585C10.3415 11.6403 10.4036 11.6846 10.4726 11.7153C10.5416 11.7461 10.6161 11.7626 10.6916 11.7639C10.7671 11.7653 10.8422 11.7514 10.9122 11.7231C10.9822 11.6948 11.0459 11.6527 11.0993 11.5993C11.1527 11.5459 11.1948 11.4822 11.2231 11.4122C11.2514 11.3422 11.2653 11.2671 11.2639 11.1916C11.2626 11.1161 11.2461 11.0416 11.2153 10.9726C11.1846 10.9036 11.1403 10.8415 11.085 10.79L6.21 5.915Z" fill="#6D7486" fill-opacity="0.7"/>
<path d="M6.35142 5.77358L6.35151 5.77349L6.34634 5.76868C6.2018 5.63399 6.01062 5.56066 5.81308 5.56415C5.61554 5.56764 5.42707 5.64766 5.28736 5.78736L5.42878 5.92878L5.28736 5.78736C5.14766 5.92707 5.06764 6.11554 5.06415 6.31308C5.06066 6.51062 5.13399 6.7018 5.26868 6.84634L5.26859 6.84643L5.27358 6.85142L10.1463 11.7241C10.2156 11.7977 10.2988 11.8569 10.3912 11.898C10.4847 11.9397 10.5857 11.9621 10.6881 11.9639C10.7905 11.9657 10.8922 11.9469 10.9871 11.9085C11.082 11.8702 11.1683 11.8131 11.2407 11.7407C11.3131 11.6683 11.3702 11.582 11.4085 11.4871C11.4469 11.3922 11.4657 11.2905 11.4639 11.1881C11.4621 11.0857 11.4397 10.9847 11.398 10.8912C11.3569 10.7988 11.2977 10.7156 11.2241 10.6463L6.35142 5.77358ZM14.2267 3.52333C14.0837 3.38033 13.8897 3.3 13.6875 3.3C13.4853 3.3 13.2913 3.38033 13.1483 3.52333C13.0053 3.66633 12.925 3.86027 12.925 4.0625V10.4375C12.925 10.6397 13.0053 10.8337 13.1483 10.9767C13.2913 11.1197 13.4853 11.2 13.6875 11.2C13.8897 11.2 14.0837 11.1197 14.2267 10.9767C14.3697 10.8337 14.45 10.6397 14.45 10.4375V4.0625C14.45 3.86027 14.3697 3.66633 14.2267 3.52333ZM3.02333 13.6483C2.88033 13.7913 2.8 13.9853 2.8 14.1875C2.8 14.3897 2.88033 14.5837 3.02333 14.7267C3.16633 14.8697 3.36027 14.95 3.5625 14.95H9.9375C10.1397 14.95 10.3337 14.8697 10.4767 14.7267C10.6197 14.5837 10.7 14.3897 10.7 14.1875C10.7 13.9853 10.6197 13.7913 10.4767 13.6483C10.3337 13.5053 10.1397 13.425 9.9375 13.425H3.5625C3.36027 13.425 3.16633 13.5053 3.02333 13.6483Z" stroke="#6D7486" stroke-opacity="0.7" stroke-width="0.4"/>
</svg>
