<svg width="18" height="19" viewBox="0 0 18 19" fill="none" xmlns="http://www.w3.org/2000/svg">
<path d="M6.35142 5.77358L6.35151 5.77349L6.34634 5.76868C6.2018 5.63399 6.01062 5.56066 5.81308 5.56415C5.61554 5.56764 5.42707 5.64766 5.28736 5.78736L5.42878 5.92878L5.28736 5.78736C5.14766 5.92707 5.06764 6.11554 5.06415 6.31308C5.06066 6.51062 5.13399 6.7018 5.26868 6.84634L5.26859 6.84643L5.27358 6.85142L10.1463 11.7241C10.2156 11.7977 10.2988 11.8569 10.3912 11.898C10.4847 11.9397 10.5857 11.9621 10.6881 11.9639C10.7905 11.9657 10.8922 11.9469 10.9871 11.9085C11.082 11.8702 11.1683 11.8131 11.2407 11.7407C11.3131 11.6683 11.3702 11.582 11.4085 11.4871C11.4469 11.3922 11.4657 11.2905 11.4639 11.1881C11.4621 11.0857 11.4397 10.9847 11.398 10.8912C11.3569 10.7988 11.2977 10.7156 11.2241 10.6463L6.35142 5.77358ZM14.2267 3.52333C14.0837 3.38033 13.8897 3.3 13.6875 3.3C13.4853 3.3 13.2913 3.38033 13.1483 3.52333C13.0053 3.66633 12.925 3.86027 12.925 4.0625V10.4375C12.925 10.6397 13.0053 10.8337 13.1483 10.9767C13.2913 11.1197 13.4853 11.2 13.6875 11.2C13.8897 11.2 14.0837 11.1197 14.2267 10.9767C14.3697 10.8337 14.45 10.6397 14.45 10.4375V4.0625C14.45 3.86027 14.3697 3.66633 14.2267 3.52333ZM3.02333 13.6483C2.88033 13.7913 2.8 13.9853 2.8 14.1875C2.8 14.3897 2.88033 14.5837 3.02333 14.7267C3.16633 14.8697 3.36027 14.95 3.5625 14.95H9.9375C10.1397 14.95 10.3337 14.8697 10.4767 14.7267C10.6197 14.5837 10.7 14.3897 10.7 14.1875C10.7 13.9853 10.6197 13.7913 10.4767 13.6483C10.3337 13.5053 10.1397 13.425 9.9375 13.425H3.5625C3.36027 13.425 3.16633 13.5053 3.02333 13.6483Z" fill="url(#paint0_linear_3621_29239)"/>
<path d="M6.35142 5.77358L6.35151 5.77349L6.34634 5.76868C6.2018 5.63399 6.01062 5.56066 5.81308 5.56415C5.61554 5.56764 5.42707 5.64766 5.28736 5.78736L5.42878 5.92878L5.28736 5.78736C5.14766 5.92707 5.06764 6.11554 5.06415 6.31308C5.06066 6.51062 5.13399 6.7018 5.26868 6.84634L5.26859 6.84643L5.27358 6.85142L10.1463 11.7241C10.2156 11.7977 10.2988 11.8569 10.3912 11.898C10.4847 11.9397 10.5857 11.9621 10.6881 11.9639C10.7905 11.9657 10.8922 11.9469 10.9871 11.9085C11.082 11.8702 11.1683 11.8131 11.2407 11.7407C11.3131 11.6683 11.3702 11.582 11.4085 11.4871C11.4469 11.3922 11.4657 11.2905 11.4639 11.1881C11.4621 11.0857 11.4397 10.9847 11.398 10.8912C11.3569 10.7988 11.2977 10.7156 11.2241 10.6463L6.35142 5.77358ZM14.2267 3.52333C14.0837 3.38033 13.8897 3.3 13.6875 3.3C13.4853 3.3 13.2913 3.38033 13.1483 3.52333C13.0053 3.66633 12.925 3.86027 12.925 4.0625V10.4375C12.925 10.6397 13.0053 10.8337 13.1483 10.9767C13.2913 11.1197 13.4853 11.2 13.6875 11.2C13.8897 11.2 14.0837 11.1197 14.2267 10.9767C14.3697 10.8337 14.45 10.6397 14.45 10.4375V4.0625C14.45 3.86027 14.3697 3.66633 14.2267 3.52333ZM3.02333 13.6483C2.88033 13.7913 2.8 13.9853 2.8 14.1875C2.8 14.3897 2.88033 14.5837 3.02333 14.7267C3.16633 14.8697 3.36027 14.95 3.5625 14.95H9.9375C10.1397 14.95 10.3337 14.8697 10.4767 14.7267C10.6197 14.5837 10.7 14.3897 10.7 14.1875C10.7 13.9853 10.6197 13.7913 10.4767 13.6483C10.3337 13.5053 10.1397 13.425 9.9375 13.425H3.5625C3.36027 13.425 3.16633 13.5053 3.02333 13.6483Z" fill="url(#paint1_radial_3621_29239)"/>
<path d="M6.35142 5.77358L6.35151 5.77349L6.34634 5.76868C6.2018 5.63399 6.01062 5.56066 5.81308 5.56415C5.61554 5.56764 5.42707 5.64766 5.28736 5.78736L5.42878 5.92878L5.28736 5.78736C5.14766 5.92707 5.06764 6.11554 5.06415 6.31308C5.06066 6.51062 5.13399 6.7018 5.26868 6.84634L5.26859 6.84643L5.27358 6.85142L10.1463 11.7241C10.2156 11.7977 10.2988 11.8569 10.3912 11.898C10.4847 11.9397 10.5857 11.9621 10.6881 11.9639C10.7905 11.9657 10.8922 11.9469 10.9871 11.9085C11.082 11.8702 11.1683 11.8131 11.2407 11.7407C11.3131 11.6683 11.3702 11.582 11.4085 11.4871C11.4469 11.3922 11.4657 11.2905 11.4639 11.1881C11.4621 11.0857 11.4397 10.9847 11.398 10.8912C11.3569 10.7988 11.2977 10.7156 11.2241 10.6463L6.35142 5.77358ZM14.2267 3.52333C14.0837 3.38033 13.8897 3.3 13.6875 3.3C13.4853 3.3 13.2913 3.38033 13.1483 3.52333C13.0053 3.66633 12.925 3.86027 12.925 4.0625V10.4375C12.925 10.6397 13.0053 10.8337 13.1483 10.9767C13.2913 11.1197 13.4853 11.2 13.6875 11.2C13.8897 11.2 14.0837 11.1197 14.2267 10.9767C14.3697 10.8337 14.45 10.6397 14.45 10.4375V4.0625C14.45 3.86027 14.3697 3.66633 14.2267 3.52333ZM3.02333 13.6483C2.88033 13.7913 2.8 13.9853 2.8 14.1875C2.8 14.3897 2.88033 14.5837 3.02333 14.7267C3.16633 14.8697 3.36027 14.95 3.5625 14.95H9.9375C10.1397 14.95 10.3337 14.8697 10.4767 14.7267C10.6197 14.5837 10.7 14.3897 10.7 14.1875C10.7 13.9853 10.6197 13.7913 10.4767 13.6483C10.3337 13.5053 10.1397 13.425 9.9375 13.425H3.5625C3.36027 13.425 3.16633 13.5053 3.02333 13.6483Z" stroke="url(#paint2_linear_3621_29239)" stroke-width="0.4"/>
<path d="M6.35142 5.77358L6.35151 5.77349L6.34634 5.76868C6.2018 5.63399 6.01062 5.56066 5.81308 5.56415C5.61554 5.56764 5.42707 5.64766 5.28736 5.78736L5.42878 5.92878L5.28736 5.78736C5.14766 5.92707 5.06764 6.11554 5.06415 6.31308C5.06066 6.51062 5.13399 6.7018 5.26868 6.84634L5.26859 6.84643L5.27358 6.85142L10.1463 11.7241C10.2156 11.7977 10.2988 11.8569 10.3912 11.898C10.4847 11.9397 10.5857 11.9621 10.6881 11.9639C10.7905 11.9657 10.8922 11.9469 10.9871 11.9085C11.082 11.8702 11.1683 11.8131 11.2407 11.7407C11.3131 11.6683 11.3702 11.582 11.4085 11.4871C11.4469 11.3922 11.4657 11.2905 11.4639 11.1881C11.4621 11.0857 11.4397 10.9847 11.398 10.8912C11.3569 10.7988 11.2977 10.7156 11.2241 10.6463L6.35142 5.77358ZM14.2267 3.52333C14.0837 3.38033 13.8897 3.3 13.6875 3.3C13.4853 3.3 13.2913 3.38033 13.1483 3.52333C13.0053 3.66633 12.925 3.86027 12.925 4.0625V10.4375C12.925 10.6397 13.0053 10.8337 13.1483 10.9767C13.2913 11.1197 13.4853 11.2 13.6875 11.2C13.8897 11.2 14.0837 11.1197 14.2267 10.9767C14.3697 10.8337 14.45 10.6397 14.45 10.4375V4.0625C14.45 3.86027 14.3697 3.66633 14.2267 3.52333ZM3.02333 13.6483C2.88033 13.7913 2.8 13.9853 2.8 14.1875C2.8 14.3897 2.88033 14.5837 3.02333 14.7267C3.16633 14.8697 3.36027 14.95 3.5625 14.95H9.9375C10.1397 14.95 10.3337 14.8697 10.4767 14.7267C10.6197 14.5837 10.7 14.3897 10.7 14.1875C10.7 13.9853 10.6197 13.7913 10.4767 13.6483C10.3337 13.5053 10.1397 13.425 9.9375 13.425H3.5625C3.36027 13.425 3.16633 13.5053 3.02333 13.6483Z" stroke="url(#paint3_radial_3621_29239)" stroke-width="0.4"/>
<defs>
<linearGradient id="paint0_linear_3621_29239" x1="8.66045" y1="4.7375" x2="5.76308" y2="13.4621" gradientUnits="userSpaceOnUse">
<stop offset="0.0192796" stop-color="#2E78E9"/>
<stop offset="0.972407" stop-color="#2863FA"/>
</linearGradient>
<radialGradient id="paint1_radial_3621_29239" cx="0" cy="0" r="1" gradientUnits="userSpaceOnUse" gradientTransform="translate(8.58955 13.7375) rotate(-90.1047) scale(12.9375 11.0518)">
<stop stop-color="white" stop-opacity="0"/>
<stop offset="1" stop-color="white" stop-opacity="0.1"/>
</radialGradient>
<linearGradient id="paint2_linear_3621_29239" x1="8.66045" y1="4.7375" x2="5.76308" y2="13.4621" gradientUnits="userSpaceOnUse">
<stop offset="0.0192796" stop-color="#2E78E9"/>
<stop offset="0.972407" stop-color="#2863FA"/>
</linearGradient>
<radialGradient id="paint3_radial_3621_29239" cx="0" cy="0" r="1" gradientUnits="userSpaceOnUse" gradientTransform="translate(8.58955 13.7375) rotate(-90.1047) scale(12.9375 11.0518)">
<stop stop-color="white" stop-opacity="0"/>
<stop offset="1" stop-color="white" stop-opacity="0.1"/>
</radialGradient>
</defs>
</svg>
