<svg width="18" height="19" viewBox="0 0 18 19" fill="none" xmlns="http://www.w3.org/2000/svg">
<path d="M6.20011 14.9041C7.06525 15.3527 8.02545 15.5871 8.99999 15.5875L6.20011 14.9041ZM6.20011 14.9041C5.36741 14.4723 4.64622 13.8541 4.09235 13.0983M6.20011 14.9041L4.09235 13.0983M4.09235 13.0983L14.5715 7.04875C14.9677 7.94932 15.1399 8.93305 15.0727 9.9157C15.0029 10.9348 14.6778 11.92 14.1273 12.7805C13.5768 13.641 12.8186 14.3492 11.9226 14.8397C11.0266 15.3302 10.0215 15.5874 9.00004 15.5875L4.09235 13.0983ZM9.00011 2.0875H9C7.53395 2.0875 6.10082 2.52224 4.88184 3.33673C3.66286 4.15123 2.71278 5.3089 2.15175 6.66336C1.59071 8.01782 1.44392 9.50822 1.72993 10.9461C2.01595 12.384 2.72192 13.7048 3.75857 14.7414C4.79523 15.7781 6.11601 16.4841 7.5539 16.7701C8.99178 17.0561 10.4822 16.9093 11.8366 16.3483C13.1911 15.7872 14.3488 14.8371 15.1633 13.6182C15.9778 12.3992 16.4125 10.9661 16.4125 9.5V9.49989C16.4104 7.53464 15.6288 5.65048 14.2392 4.26083C12.8495 2.87119 10.9654 2.08958 9.00011 2.0875ZM12.0429 4.22913C12.774 4.65154 13.409 5.22125 13.9076 5.9017L9.6625 8.35228V3.4491C10.5011 3.54124 11.3117 3.80672 12.0429 4.22913ZM8.3375 9.11671L3.4285 11.9505C3.05137 11.0928 2.87711 10.1592 2.91996 9.22222C2.96447 8.24873 3.24205 7.30015 3.72935 6.45623C4.21666 5.61231 4.89945 4.89771 5.72032 4.37252C6.51038 3.86703 7.40614 3.55121 8.3375 3.44907V9.11671Z" fill="url(#paint0_linear_3621_20198)"/>
<path d="M6.20011 14.9041C7.06525 15.3527 8.02545 15.5871 8.99999 15.5875L6.20011 14.9041ZM6.20011 14.9041C5.36741 14.4723 4.64622 13.8541 4.09235 13.0983M6.20011 14.9041L4.09235 13.0983M4.09235 13.0983L14.5715 7.04875C14.9677 7.94932 15.1399 8.93305 15.0727 9.9157C15.0029 10.9348 14.6778 11.92 14.1273 12.7805C13.5768 13.641 12.8186 14.3492 11.9226 14.8397C11.0266 15.3302 10.0215 15.5874 9.00004 15.5875L4.09235 13.0983ZM9.00011 2.0875H9C7.53395 2.0875 6.10082 2.52224 4.88184 3.33673C3.66286 4.15123 2.71278 5.3089 2.15175 6.66336C1.59071 8.01782 1.44392 9.50822 1.72993 10.9461C2.01595 12.384 2.72192 13.7048 3.75857 14.7414C4.79523 15.7781 6.11601 16.4841 7.5539 16.7701C8.99178 17.0561 10.4822 16.9093 11.8366 16.3483C13.1911 15.7872 14.3488 14.8371 15.1633 13.6182C15.9778 12.3992 16.4125 10.9661 16.4125 9.5V9.49989C16.4104 7.53464 15.6288 5.65048 14.2392 4.26083C12.8495 2.87119 10.9654 2.08958 9.00011 2.0875ZM12.0429 4.22913C12.774 4.65154 13.409 5.22125 13.9076 5.9017L9.6625 8.35228V3.4491C10.5011 3.54124 11.3117 3.80672 12.0429 4.22913ZM8.3375 9.11671L3.4285 11.9505C3.05137 11.0928 2.87711 10.1592 2.91996 9.22222C2.96447 8.24873 3.24205 7.30015 3.72935 6.45623C4.21666 5.61231 4.89945 4.89771 5.72032 4.37252C6.51038 3.86703 7.40614 3.55121 8.3375 3.44907V9.11671Z" fill="url(#paint1_radial_3621_20198)"/>
<path d="M6.20011 14.9041C7.06525 15.3527 8.02545 15.5871 8.99999 15.5875L6.20011 14.9041ZM6.20011 14.9041C5.36741 14.4723 4.64622 13.8541 4.09235 13.0983M6.20011 14.9041L4.09235 13.0983M4.09235 13.0983L14.5715 7.04875C14.9677 7.94932 15.1399 8.93305 15.0727 9.9157C15.0029 10.9348 14.6778 11.92 14.1273 12.7805C13.5768 13.641 12.8186 14.3492 11.9226 14.8397C11.0266 15.3302 10.0215 15.5874 9.00004 15.5875L4.09235 13.0983ZM9.00011 2.0875H9C7.53395 2.0875 6.10082 2.52224 4.88184 3.33673C3.66286 4.15123 2.71278 5.3089 2.15175 6.66336C1.59071 8.01782 1.44392 9.50822 1.72993 10.9461C2.01595 12.384 2.72192 13.7048 3.75857 14.7414C4.79523 15.7781 6.11601 16.4841 7.5539 16.7701C8.99178 17.0561 10.4822 16.9093 11.8366 16.3483C13.1911 15.7872 14.3488 14.8371 15.1633 13.6182C15.9778 12.3992 16.4125 10.9661 16.4125 9.5V9.49989C16.4104 7.53464 15.6288 5.65048 14.2392 4.26083C12.8495 2.87119 10.9654 2.08958 9.00011 2.0875ZM12.0429 4.22913C12.774 4.65154 13.409 5.22125 13.9076 5.9017L9.6625 8.35228V3.4491C10.5011 3.54124 11.3117 3.80672 12.0429 4.22913ZM8.3375 9.11671L3.4285 11.9505C3.05137 11.0928 2.87711 10.1592 2.91996 9.22222C2.96447 8.24873 3.24205 7.30015 3.72935 6.45623C4.21666 5.61231 4.89945 4.89771 5.72032 4.37252C6.51038 3.86703 7.40614 3.55121 8.3375 3.44907V9.11671Z" stroke="url(#paint2_linear_3621_20198)" stroke-width="0.2"/>
<path d="M6.20011 14.9041C7.06525 15.3527 8.02545 15.5871 8.99999 15.5875L6.20011 14.9041ZM6.20011 14.9041C5.36741 14.4723 4.64622 13.8541 4.09235 13.0983M6.20011 14.9041L4.09235 13.0983M4.09235 13.0983L14.5715 7.04875C14.9677 7.94932 15.1399 8.93305 15.0727 9.9157C15.0029 10.9348 14.6778 11.92 14.1273 12.7805C13.5768 13.641 12.8186 14.3492 11.9226 14.8397C11.0266 15.3302 10.0215 15.5874 9.00004 15.5875L4.09235 13.0983ZM9.00011 2.0875H9C7.53395 2.0875 6.10082 2.52224 4.88184 3.33673C3.66286 4.15123 2.71278 5.3089 2.15175 6.66336C1.59071 8.01782 1.44392 9.50822 1.72993 10.9461C2.01595 12.384 2.72192 13.7048 3.75857 14.7414C4.79523 15.7781 6.11601 16.4841 7.5539 16.7701C8.99178 17.0561 10.4822 16.9093 11.8366 16.3483C13.1911 15.7872 14.3488 14.8371 15.1633 13.6182C15.9778 12.3992 16.4125 10.9661 16.4125 9.5V9.49989C16.4104 7.53464 15.6288 5.65048 14.2392 4.26083C12.8495 2.87119 10.9654 2.08958 9.00011 2.0875ZM12.0429 4.22913C12.774 4.65154 13.409 5.22125 13.9076 5.9017L9.6625 8.35228V3.4491C10.5011 3.54124 11.3117 3.80672 12.0429 4.22913ZM8.3375 9.11671L3.4285 11.9505C3.05137 11.0928 2.87711 10.1592 2.91996 9.22222C2.96447 8.24873 3.24205 7.30015 3.72935 6.45623C4.21666 5.61231 4.89945 4.89771 5.72032 4.37252C6.51038 3.86703 7.40614 3.55121 8.3375 3.44907V9.11671Z" stroke="url(#paint3_radial_3621_20198)" stroke-width="0.2"/>
<defs>
<linearGradient id="paint0_linear_3621_20198" x1="9.04609" y1="3.79625" x2="5.2795" y2="15.1382" gradientUnits="userSpaceOnUse">
<stop offset="0.0192796" stop-color="#2E78E9"/>
<stop offset="0.972407" stop-color="#2863FA"/>
</linearGradient>
<radialGradient id="paint1_radial_3621_20198" cx="0" cy="0" r="1" gradientUnits="userSpaceOnUse" gradientTransform="translate(8.95391 15.4963) rotate(-90.1047) scale(16.8188 14.3674)">
<stop stop-color="white" stop-opacity="0"/>
<stop offset="1" stop-color="white" stop-opacity="0.1"/>
</radialGradient>
<linearGradient id="paint2_linear_3621_20198" x1="9.04609" y1="3.79625" x2="5.2795" y2="15.1382" gradientUnits="userSpaceOnUse">
<stop offset="0.0192796" stop-color="#2E78E9"/>
<stop offset="0.972407" stop-color="#2863FA"/>
</linearGradient>
<radialGradient id="paint3_radial_3621_20198" cx="0" cy="0" r="1" gradientUnits="userSpaceOnUse" gradientTransform="translate(8.95391 15.4963) rotate(-90.1047) scale(16.8188 14.3674)">
<stop stop-color="white" stop-opacity="0"/>
<stop offset="1" stop-color="white" stop-opacity="0.1"/>
</radialGradient>
</defs>
</svg>
