<svg width="18" height="19" viewBox="0 0 18 19" fill="none" xmlns="http://www.w3.org/2000/svg">
<path d="M9 2.1875C7.55373 2.1875 6.13993 2.61637 4.9374 3.41988C3.73486 4.22339 2.7976 5.36544 2.24413 6.70163C1.69067 8.03781 1.54586 9.50811 1.82801 10.9266C2.11017 12.3451 2.80661 13.648 3.82928 14.6707C4.85196 15.6934 6.15492 16.3898 7.57341 16.672C8.99189 16.9541 10.4622 16.8093 11.7984 16.2559C13.1346 15.7024 14.2766 14.7651 15.0801 13.5626C15.8836 12.3601 16.3125 10.9463 16.3125 9.5C16.3105 7.56123 15.5394 5.70246 14.1685 4.33154C12.7975 2.96063 10.9388 2.18955 9 2.1875ZM14.0534 5.93305L9.5625 8.52547V3.33852C10.4542 3.42027 11.3175 3.69459 12.0929 4.14254C12.8682 4.59048 13.5371 5.20138 14.0534 5.93305ZM8.4375 3.33852V9.17445L3.38274 12.0924C2.96778 11.193 2.77482 10.2071 2.82006 9.21765C2.86531 8.22817 3.14745 7.26401 3.64276 6.40622C4.13806 5.54844 4.83207 4.82211 5.66643 4.28828C6.50078 3.75445 7.4511 3.42874 8.4375 3.33852ZM9 15.6875C8.00943 15.6871 7.03344 15.4489 6.15407 14.9929C5.27471 14.5368 4.51769 13.8764 3.94664 13.067L14.6173 6.90688C15.0524 7.84959 15.2433 8.88665 15.1724 9.92253C15.1015 10.9584 14.7711 11.9598 14.2115 12.8344C13.652 13.709 12.8814 14.4288 11.9706 14.9274C11.0599 15.426 10.0383 15.6874 9 15.6875Z" fill="#6D7486" fill-opacity="0.7"/>
<path d="M6.20011 14.9041C7.06525 15.3527 8.02545 15.5871 8.99999 15.5875L6.20011 14.9041ZM6.20011 14.9041C5.36741 14.4723 4.64622 13.8541 4.09235 13.0983M6.20011 14.9041L4.09235 13.0983M4.09235 13.0983L14.5715 7.04875C14.9677 7.94932 15.1399 8.93305 15.0727 9.9157C15.0029 10.9348 14.6778 11.92 14.1273 12.7805C13.5768 13.641 12.8186 14.3492 11.9226 14.8397C11.0266 15.3302 10.0215 15.5874 9.00004 15.5875L4.09235 13.0983ZM9.00011 2.0875H9C7.53395 2.0875 6.10082 2.52224 4.88184 3.33673C3.66286 4.15123 2.71278 5.3089 2.15175 6.66336C1.59071 8.01782 1.44392 9.50822 1.72993 10.9461C2.01595 12.384 2.72192 13.7048 3.75857 14.7414C4.79523 15.7781 6.11601 16.4841 7.5539 16.7701C8.99178 17.0561 10.4822 16.9093 11.8366 16.3483C13.1911 15.7872 14.3488 14.8371 15.1633 13.6182C15.9778 12.3992 16.4125 10.9661 16.4125 9.5V9.49989C16.4104 7.53464 15.6288 5.65048 14.2392 4.26083C12.8495 2.87119 10.9654 2.08958 9.00011 2.0875ZM12.0429 4.22913C12.774 4.65154 13.409 5.22125 13.9076 5.9017L9.6625 8.35228V3.4491C10.5011 3.54124 11.3117 3.80672 12.0429 4.22913ZM8.3375 9.11671L3.4285 11.9505C3.05137 11.0928 2.87711 10.1592 2.91996 9.22222C2.96447 8.24873 3.24205 7.30015 3.72935 6.45623C4.21666 5.61231 4.89945 4.89771 5.72032 4.37252C6.51038 3.86703 7.40614 3.55121 8.3375 3.44907V9.11671Z" stroke="#6D7486" stroke-opacity="0.7" stroke-width="0.2"/>
</svg>
