<svg width="105" height="28" viewBox="0 0 105 28" fill="none" xmlns="http://www.w3.org/2000/svg">
<g clip-path="url(#clip0_1930_95608)">
<g filter="url(#filter0_d_1930_95608)">
<path d="M28.2617 14.392C28.2617 22.1169 21.7432 27.989 14.0209 27.9995C6.5682 28.01 0.473625 22.3053 0.0261486 14.8657C-0.463197 6.74045 5.97942 -0.000488281 14 -0.000488281C17.4934 -0.000488281 20.6833 1.27652 23.1353 3.39353C9.68222 3.72848 3.00148 16.7629 10.9906 20.4107C15.1095 22.2922 18.043 19.0186 18.3177 15.4388C19.1028 5.23316 23.028 6.0182 25.1215 6.80325C25.1215 6.80325 26.1682 7.5883 26.6916 8.37334C27.2149 9.15839 28.2617 12.4661 28.2617 14.392Z" fill="url(#paint0_linear_1930_95608)"/>
<path d="M28.2617 14.392C28.2617 22.1169 21.7432 27.989 14.0209 27.9995C6.5682 28.01 0.473625 22.3053 0.0261486 14.8657C-0.463197 6.74045 5.97942 -0.000488281 14 -0.000488281C17.4934 -0.000488281 20.6833 1.27652 23.1353 3.39353C9.68222 3.72848 3.00148 16.7629 10.9906 20.4107C15.1095 22.2922 18.043 19.0186 18.3177 15.4388C19.1028 5.23316 23.028 6.0182 25.1215 6.80325C25.1215 6.80325 26.1682 7.5883 26.6916 8.37334C27.2149 9.15839 28.2617 12.4661 28.2617 14.392Z" fill="url(#paint1_radial_1930_95608)"/>
<path d="M18.758 15.4726C19.149 10.3896 20.3166 8.21427 21.4897 7.35589C22.6103 6.53596 23.883 6.81784 24.9053 7.194C24.9324 7.21515 24.97 7.24477 25.0157 7.28171C25.1173 7.36376 25.2583 7.48127 25.4149 7.62213C25.7338 7.90921 26.0935 8.27232 26.3241 8.61829C26.4257 8.7706 26.5749 9.08481 26.7451 9.53138C26.9114 9.96784 27.0872 10.5022 27.2477 11.0741C27.5714 12.2277 27.8201 13.4899 27.8201 14.392C27.8201 21.8467 21.5264 27.5477 14.0203 27.5579C6.80029 27.5681 0.900312 22.0443 0.466941 14.8392L0.466939 14.8391C-0.00702777 6.96926 6.23224 0.441101 14 0.441101C16.9706 0.441101 19.7136 1.39404 21.9459 3.01408C15.6664 3.52092 10.9426 6.7623 8.64791 10.4254C7.43116 12.3677 6.88123 14.4577 7.19027 16.3318C7.50261 18.226 8.68456 19.8432 10.8072 20.8124C13.012 21.8195 14.9541 21.4567 16.3723 20.3169C17.7665 19.1965 18.6131 17.3613 18.758 15.4726ZM18.758 15.4726L18.3177 15.4388M18.758 15.4726L18.3177 15.4388M18.3177 15.4388C19.1028 5.23316 23.028 6.0182 25.1215 6.80325L22.4776 3.42024C9.46661 4.15437 3.13277 16.8228 10.9906 20.4107C15.1095 22.2922 18.043 19.0186 18.3177 15.4388Z" stroke="black" stroke-opacity="0.05" stroke-width="0.883178"/>
</g>
<path d="M12.9532 18.5792C14.7598 18.5792 16.2243 17.1147 16.2243 15.3081C16.2243 13.5016 14.7598 12.0371 12.9532 12.0371C11.1467 12.0371 9.68222 13.5016 9.68222 15.3081C9.68222 17.1147 11.1467 18.5792 12.9532 18.5792Z" fill="url(#paint2_linear_1930_95608)"/>
<path d="M12.9532 18.5792C14.7598 18.5792 16.2243 17.1147 16.2243 15.3081C16.2243 13.5016 14.7598 12.0371 12.9532 12.0371C11.1467 12.0371 9.68222 13.5016 9.68222 15.3081C9.68222 17.1147 11.1467 18.5792 12.9532 18.5792Z" fill="url(#paint3_radial_1930_95608)"/>
</g>
<path d="M42.848 21.6119C40.8516 21.6119 39.2588 21.1493 38.0698 20.2239C36.8954 19.2836 36.2055 17.9627 36 16.2612H38.7524C38.8845 17.2463 39.3176 18.0149 40.0515 18.5672C40.7855 19.1045 41.747 19.3731 42.9361 19.3731C43.9196 19.3731 44.6682 19.194 45.182 18.8358C45.7105 18.4627 45.9747 17.9478 45.9747 17.291C45.9747 16.709 45.8132 16.2388 45.4903 15.8806C45.1673 15.5224 44.6242 15.2313 43.8609 15.0075L40.9984 14.1343C39.5451 13.6866 38.4735 13.097 37.7836 12.3657C37.1083 11.6343 36.7707 10.7164 36.7707 9.61194C36.7707 8.68657 37.0055 7.8806 37.4753 7.19403C37.945 6.50746 38.6056 5.97761 39.457 5.60448C40.3231 5.23134 41.3287 5.04478 42.4737 5.04478C44.2352 5.04478 45.6371 5.48508 46.6793 6.36567C47.7362 7.23134 48.3381 8.41045 48.4849 9.90299H45.7325C45.571 9.00746 45.204 8.35075 44.6315 7.93284C44.059 7.5 43.2884 7.28358 42.3195 7.28358C41.4681 7.28358 40.7929 7.45522 40.2937 7.79851C39.7946 8.14179 39.5451 8.61194 39.5451 9.20896C39.5451 9.70149 39.6919 10.1194 39.9855 10.4627C40.2937 10.806 40.8589 11.1045 41.681 11.3582L44.5875 12.2537C46.0408 12.6866 47.0977 13.2761 47.7583 14.0224C48.4188 14.7687 48.7491 15.7164 48.7491 16.8657C48.7491 18.3881 48.228 19.5597 47.1858 20.3806C46.1582 21.2015 44.7123 21.6119 42.848 21.6119Z" fill="url(#paint4_linear_1930_95608)"/>
<path d="M42.848 21.6119C40.8516 21.6119 39.2588 21.1493 38.0698 20.2239C36.8954 19.2836 36.2055 17.9627 36 16.2612H38.7524C38.8845 17.2463 39.3176 18.0149 40.0515 18.5672C40.7855 19.1045 41.747 19.3731 42.9361 19.3731C43.9196 19.3731 44.6682 19.194 45.182 18.8358C45.7105 18.4627 45.9747 17.9478 45.9747 17.291C45.9747 16.709 45.8132 16.2388 45.4903 15.8806C45.1673 15.5224 44.6242 15.2313 43.8609 15.0075L40.9984 14.1343C39.5451 13.6866 38.4735 13.097 37.7836 12.3657C37.1083 11.6343 36.7707 10.7164 36.7707 9.61194C36.7707 8.68657 37.0055 7.8806 37.4753 7.19403C37.945 6.50746 38.6056 5.97761 39.457 5.60448C40.3231 5.23134 41.3287 5.04478 42.4737 5.04478C44.2352 5.04478 45.6371 5.48508 46.6793 6.36567C47.7362 7.23134 48.3381 8.41045 48.4849 9.90299H45.7325C45.571 9.00746 45.204 8.35075 44.6315 7.93284C44.059 7.5 43.2884 7.28358 42.3195 7.28358C41.4681 7.28358 40.7929 7.45522 40.2937 7.79851C39.7946 8.14179 39.5451 8.61194 39.5451 9.20896C39.5451 9.70149 39.6919 10.1194 39.9855 10.4627C40.2937 10.806 40.8589 11.1045 41.681 11.3582L44.5875 12.2537C46.0408 12.6866 47.0977 13.2761 47.7583 14.0224C48.4188 14.7687 48.7491 15.7164 48.7491 16.8657C48.7491 18.3881 48.228 19.5597 47.1858 20.3806C46.1582 21.2015 44.7123 21.6119 42.848 21.6119Z" fill="url(#paint5_radial_1930_95608)"/>
<path d="M57.5952 21.4104C57.5218 21.1119 57.4631 20.7836 57.419 20.4254C57.3897 20.0672 57.375 19.6343 57.375 19.1269H57.2869V13.709C57.2869 13.1119 57.1181 12.6642 56.7805 12.3657C56.4575 12.0522 55.9584 11.8955 55.2832 11.8955C54.6226 11.8955 54.0941 12.0224 53.6978 12.2761C53.3161 12.5149 53.0812 12.8657 52.9932 13.3284H50.3288C50.4463 12.2687 50.9454 11.4104 51.8261 10.7537C52.7069 10.097 53.8886 9.76866 55.3712 9.76866C56.9126 9.76866 58.0796 10.1269 58.8723 10.8433C59.665 11.5448 60.0613 12.5821 60.0613 13.9552V19.1269C60.0613 19.4851 60.0834 19.8507 60.1274 20.2239C60.1861 20.597 60.2668 20.9925 60.3696 21.4104H57.5952ZM53.6978 21.6343C52.5675 21.6343 51.6647 21.3507 50.9894 20.7836C50.3288 20.2015 49.9986 19.4254 49.9986 18.4552C49.9986 17.4104 50.3729 16.5821 51.1215 15.9701C51.8702 15.3582 52.9271 14.9478 54.2923 14.7388L57.7934 14.2015V15.9925L54.7547 16.4627C54.0941 16.5672 53.595 16.7537 53.2574 17.0224C52.9344 17.291 52.773 17.6642 52.773 18.1418C52.773 18.5746 52.9271 18.9104 53.2354 19.1493C53.5436 19.3731 53.9694 19.4851 54.5125 19.4851C55.3052 19.4851 55.9658 19.2836 56.4942 18.8806C57.0227 18.4776 57.2869 17.9851 57.2869 17.403L57.5952 19.1269C57.3016 19.9478 56.8172 20.5746 56.1419 21.0075C55.4813 21.4254 54.6666 21.6343 53.6978 21.6343Z" fill="url(#paint6_linear_1930_95608)"/>
<path d="M57.5952 21.4104C57.5218 21.1119 57.4631 20.7836 57.419 20.4254C57.3897 20.0672 57.375 19.6343 57.375 19.1269H57.2869V13.709C57.2869 13.1119 57.1181 12.6642 56.7805 12.3657C56.4575 12.0522 55.9584 11.8955 55.2832 11.8955C54.6226 11.8955 54.0941 12.0224 53.6978 12.2761C53.3161 12.5149 53.0812 12.8657 52.9932 13.3284H50.3288C50.4463 12.2687 50.9454 11.4104 51.8261 10.7537C52.7069 10.097 53.8886 9.76866 55.3712 9.76866C56.9126 9.76866 58.0796 10.1269 58.8723 10.8433C59.665 11.5448 60.0613 12.5821 60.0613 13.9552V19.1269C60.0613 19.4851 60.0834 19.8507 60.1274 20.2239C60.1861 20.597 60.2668 20.9925 60.3696 21.4104H57.5952ZM53.6978 21.6343C52.5675 21.6343 51.6647 21.3507 50.9894 20.7836C50.3288 20.2015 49.9986 19.4254 49.9986 18.4552C49.9986 17.4104 50.3729 16.5821 51.1215 15.9701C51.8702 15.3582 52.9271 14.9478 54.2923 14.7388L57.7934 14.2015V15.9925L54.7547 16.4627C54.0941 16.5672 53.595 16.7537 53.2574 17.0224C52.9344 17.291 52.773 17.6642 52.773 18.1418C52.773 18.5746 52.9271 18.9104 53.2354 19.1493C53.5436 19.3731 53.9694 19.4851 54.5125 19.4851C55.3052 19.4851 55.9658 19.2836 56.4942 18.8806C57.0227 18.4776 57.2869 17.9851 57.2869 17.403L57.5952 19.1269C57.3016 19.9478 56.8172 20.5746 56.1419 21.0075C55.4813 21.4254 54.6666 21.6343 53.6978 21.6343Z" fill="url(#paint7_radial_1930_95608)"/>
<path d="M62.6512 21.4104V9.99254H65.3595V12.6791H65.4256V21.4104H62.6512ZM70.2038 21.4104V14.0448C70.2038 13.3731 70.035 12.8806 69.6973 12.5672C69.3744 12.2388 68.912 12.0746 68.3101 12.0746C67.7817 12.0746 67.2972 12.2015 66.8568 12.4552C66.4165 12.709 66.0642 13.0672 65.7999 13.5299C65.5504 13.9925 65.4256 14.5299 65.4256 15.1418L65.1394 12.5224C65.521 11.6866 66.0715 11.0224 66.7908 10.5299C67.5101 10.0224 68.3468 9.76866 69.301 9.76866C70.446 9.76866 71.3488 10.1045 72.0093 10.7761C72.6699 11.4328 73.0002 12.2836 73.0002 13.3284V21.4104H70.2038ZM77.7564 21.4104V14.0448C77.7564 13.3731 77.5949 12.8806 77.2719 12.5672C76.949 12.2388 76.4866 12.0746 75.8847 12.0746C75.3416 12.0746 74.8498 12.2015 74.4094 12.4552C73.9691 12.709 73.6241 13.0672 73.3745 13.5299C73.125 13.9925 73.0002 14.5299 73.0002 15.1418L72.5158 12.5224C72.8828 11.6866 73.4406 11.0224 74.1893 10.5299C74.9379 10.0224 75.804 9.76866 76.7875 9.76866C77.9619 9.76866 78.8793 10.1119 79.5399 10.7985C80.2152 11.4701 80.5528 12.3657 80.5528 13.4851V21.4104H77.7564Z" fill="url(#paint8_linear_1930_95608)"/>
<path d="M62.6512 21.4104V9.99254H65.3595V12.6791H65.4256V21.4104H62.6512ZM70.2038 21.4104V14.0448C70.2038 13.3731 70.035 12.8806 69.6973 12.5672C69.3744 12.2388 68.912 12.0746 68.3101 12.0746C67.7817 12.0746 67.2972 12.2015 66.8568 12.4552C66.4165 12.709 66.0642 13.0672 65.7999 13.5299C65.5504 13.9925 65.4256 14.5299 65.4256 15.1418L65.1394 12.5224C65.521 11.6866 66.0715 11.0224 66.7908 10.5299C67.5101 10.0224 68.3468 9.76866 69.301 9.76866C70.446 9.76866 71.3488 10.1045 72.0093 10.7761C72.6699 11.4328 73.0002 12.2836 73.0002 13.3284V21.4104H70.2038ZM77.7564 21.4104V14.0448C77.7564 13.3731 77.5949 12.8806 77.2719 12.5672C76.949 12.2388 76.4866 12.0746 75.8847 12.0746C75.3416 12.0746 74.8498 12.2015 74.4094 12.4552C73.9691 12.709 73.6241 13.0672 73.3745 13.5299C73.125 13.9925 73.0002 14.5299 73.0002 15.1418L72.5158 12.5224C72.8828 11.6866 73.4406 11.0224 74.1893 10.5299C74.9379 10.0224 75.804 9.76866 76.7875 9.76866C77.9619 9.76866 78.8793 10.1119 79.5399 10.7985C80.2152 11.4701 80.5528 12.3657 80.5528 13.4851V21.4104H77.7564Z" fill="url(#paint9_radial_1930_95608)"/>
<path d="M89.5676 21.6343C88.496 21.6343 87.6226 21.3806 86.9473 20.8731C86.2868 20.3507 85.8757 19.6343 85.7143 18.7239L85.9344 18.7015V26H83.16V9.99254H85.8684V12.5672L85.6482 12.5224C85.8537 11.6716 86.3235 11 87.0574 10.5075C87.7914 10.0149 88.6869 9.76866 89.7438 9.76866C90.742 9.76866 91.6081 10.0149 92.342 10.5075C93.0907 10.9851 93.6705 11.6642 94.0816 12.5448C94.4926 13.4254 94.6981 14.4627 94.6981 15.6567C94.6981 16.8657 94.4852 17.9179 94.0595 18.8134C93.6338 19.709 93.0393 20.403 92.276 20.8955C91.5126 21.3881 90.6099 21.6343 89.5676 21.6343ZM88.863 19.306C89.7584 19.306 90.4704 18.9925 90.9989 18.3657C91.5273 17.7239 91.7916 16.8284 91.7916 15.6791C91.7916 14.5299 91.52 13.6418 90.9768 13.0149C90.4484 12.3881 89.7364 12.0746 88.841 12.0746C87.9602 12.0746 87.2483 12.3955 86.7051 13.0373C86.162 13.6642 85.8904 14.5522 85.8904 15.7015C85.8904 16.8507 86.162 17.7388 86.7051 18.3657C87.2483 18.9925 87.9676 19.306 88.863 19.306Z" fill="url(#paint10_linear_1930_95608)"/>
<path d="M89.5676 21.6343C88.496 21.6343 87.6226 21.3806 86.9473 20.8731C86.2868 20.3507 85.8757 19.6343 85.7143 18.7239L85.9344 18.7015V26H83.16V9.99254H85.8684V12.5672L85.6482 12.5224C85.8537 11.6716 86.3235 11 87.0574 10.5075C87.7914 10.0149 88.6869 9.76866 89.7438 9.76866C90.742 9.76866 91.6081 10.0149 92.342 10.5075C93.0907 10.9851 93.6705 11.6642 94.0816 12.5448C94.4926 13.4254 94.6981 14.4627 94.6981 15.6567C94.6981 16.8657 94.4852 17.9179 94.0595 18.8134C93.6338 19.709 93.0393 20.403 92.276 20.8955C91.5126 21.3881 90.6099 21.6343 89.5676 21.6343ZM88.863 19.306C89.7584 19.306 90.4704 18.9925 90.9989 18.3657C91.5273 17.7239 91.7916 16.8284 91.7916 15.6791C91.7916 14.5299 91.52 13.6418 90.9768 13.0149C90.4484 12.3881 89.7364 12.0746 88.841 12.0746C87.9602 12.0746 87.2483 12.3955 86.7051 13.0373C86.162 13.6642 85.8904 14.5522 85.8904 15.7015C85.8904 16.8507 86.162 17.7388 86.7051 18.3657C87.2483 18.9925 87.9676 19.306 88.863 19.306Z" fill="url(#paint11_radial_1930_95608)"/>
<path d="M96.6158 21.4104V5.29105H99.3903V21.4104H96.6158Z" fill="url(#paint12_linear_1930_95608)"/>
<path d="M96.6158 21.4104V5.29105H99.3903V21.4104H96.6158Z" fill="url(#paint13_radial_1930_95608)"/>
<path d="M102.115 21.4104V9.99254H104.89V21.4104H102.115ZM101.983 8.11194V5H105V8.11194H101.983Z" fill="url(#paint14_linear_1930_95608)"/>
<path d="M102.115 21.4104V9.99254H104.89V21.4104H102.115ZM101.983 8.11194V5H105V8.11194H101.983Z" fill="url(#paint15_radial_1930_95608)"/>
<defs>
<filter id="filter0_d_1930_95608" x="-1.41308" y="-1.41357" width="31.0878" height="30.8262" filterUnits="userSpaceOnUse" color-interpolation-filters="sRGB">
<feFlood flood-opacity="0" result="BackgroundImageFix"/>
<feColorMatrix in="SourceAlpha" type="matrix" values="0 0 0 0 0 0 0 0 0 0 0 0 0 0 0 0 0 0 127 0" result="hardAlpha"/>
<feOffset/>
<feGaussianBlur stdDeviation="0.706542"/>
<feComposite in2="hardAlpha" operator="out"/>
<feColorMatrix type="matrix" values="0 0 0 0 0 0 0 0 0 0 0 0 0 0 0 0 0 0 0.04 0"/>
<feBlend mode="normal" in2="BackgroundImageFix" result="effect1_dropShadow_1930_95608"/>
<feBlend mode="normal" in="SourceGraphic" in2="effect1_dropShadow_1930_95608" result="shape"/>
</filter>
<linearGradient id="paint0_linear_1930_95608" x1="14.2199" y1="3.07951" x2="7.0623" y2="24.8338" gradientUnits="userSpaceOnUse">
<stop offset="0.0192796" stop-color="#2E78E9"/>
<stop offset="0.972407" stop-color="#2863FA"/>
</linearGradient>
<radialGradient id="paint1_radial_1930_95608" cx="0" cy="0" r="1" gradientUnits="userSpaceOnUse" gradientTransform="translate(14.0418 25.4795) rotate(-90.1056) scale(32.2001 27.7638)">
<stop stop-color="white" stop-opacity="0"/>
<stop offset="1" stop-color="white" stop-opacity="0.1"/>
</radialGradient>
<linearGradient id="paint2_linear_1930_95608" x1="12.9739" y1="12.7567" x2="11.289" y2="17.8302" gradientUnits="userSpaceOnUse">
<stop offset="0.0192796" stop-color="#2E78E9"/>
<stop offset="0.972407" stop-color="#2863FA"/>
</linearGradient>
<radialGradient id="paint3_radial_1930_95608" cx="0" cy="0" r="1" gradientUnits="userSpaceOnUse" gradientTransform="translate(12.9326 17.9904) rotate(-90.1047) scale(7.52338 6.42682)">
<stop stop-color="white" stop-opacity="0"/>
<stop offset="1" stop-color="white" stop-opacity="0.1"/>
</radialGradient>
<linearGradient id="paint4_linear_1930_95608" x1="70.7174" y1="7.31" x2="68.9083" y2="25.2091" gradientUnits="userSpaceOnUse">
<stop offset="0.0192796" stop-color="#2E78E9"/>
<stop offset="0.972407" stop-color="#2863FA"/>
</linearGradient>
<radialGradient id="paint5_radial_1930_95608" cx="0" cy="0" r="1" gradientUnits="userSpaceOnUse" gradientTransform="translate(70.2826 24.11) rotate(-90.3439) scale(24.1504 67.7834)">
<stop stop-color="white" stop-opacity="0"/>
<stop offset="1" stop-color="white" stop-opacity="0.1"/>
</radialGradient>
<linearGradient id="paint6_linear_1930_95608" x1="70.7174" y1="7.31" x2="68.9083" y2="25.2091" gradientUnits="userSpaceOnUse">
<stop offset="0.0192796" stop-color="#2E78E9"/>
<stop offset="0.972407" stop-color="#2863FA"/>
</linearGradient>
<radialGradient id="paint7_radial_1930_95608" cx="0" cy="0" r="1" gradientUnits="userSpaceOnUse" gradientTransform="translate(70.2826 24.11) rotate(-90.3439) scale(24.1504 67.7834)">
<stop stop-color="white" stop-opacity="0"/>
<stop offset="1" stop-color="white" stop-opacity="0.1"/>
</radialGradient>
<linearGradient id="paint8_linear_1930_95608" x1="70.7174" y1="7.31" x2="68.9083" y2="25.2091" gradientUnits="userSpaceOnUse">
<stop offset="0.0192796" stop-color="#2E78E9"/>
<stop offset="0.972407" stop-color="#2863FA"/>
</linearGradient>
<radialGradient id="paint9_radial_1930_95608" cx="0" cy="0" r="1" gradientUnits="userSpaceOnUse" gradientTransform="translate(70.2826 24.11) rotate(-90.3439) scale(24.1504 67.7834)">
<stop stop-color="white" stop-opacity="0"/>
<stop offset="1" stop-color="white" stop-opacity="0.1"/>
</radialGradient>
<linearGradient id="paint10_linear_1930_95608" x1="70.7174" y1="7.31" x2="68.9083" y2="25.2091" gradientUnits="userSpaceOnUse">
<stop offset="0.0192796" stop-color="#2E78E9"/>
<stop offset="0.972407" stop-color="#2863FA"/>
</linearGradient>
<radialGradient id="paint11_radial_1930_95608" cx="0" cy="0" r="1" gradientUnits="userSpaceOnUse" gradientTransform="translate(70.2826 24.11) rotate(-90.3439) scale(24.1504 67.7834)">
<stop stop-color="white" stop-opacity="0"/>
<stop offset="1" stop-color="white" stop-opacity="0.1"/>
</radialGradient>
<linearGradient id="paint12_linear_1930_95608" x1="70.7174" y1="7.31" x2="68.9083" y2="25.2091" gradientUnits="userSpaceOnUse">
<stop offset="0.0192796" stop-color="#2E78E9"/>
<stop offset="0.972407" stop-color="#2863FA"/>
</linearGradient>
<radialGradient id="paint13_radial_1930_95608" cx="0" cy="0" r="1" gradientUnits="userSpaceOnUse" gradientTransform="translate(70.2826 24.11) rotate(-90.3439) scale(24.1504 67.7834)">
<stop stop-color="white" stop-opacity="0"/>
<stop offset="1" stop-color="white" stop-opacity="0.1"/>
</radialGradient>
<linearGradient id="paint14_linear_1930_95608" x1="70.7174" y1="7.31" x2="68.9083" y2="25.2091" gradientUnits="userSpaceOnUse">
<stop offset="0.0192796" stop-color="#2E78E9"/>
<stop offset="0.972407" stop-color="#2863FA"/>
</linearGradient>
<radialGradient id="paint15_radial_1930_95608" cx="0" cy="0" r="1" gradientUnits="userSpaceOnUse" gradientTransform="translate(70.2826 24.11) rotate(-90.3439) scale(24.1504 67.7834)">
<stop stop-color="white" stop-opacity="0"/>
<stop offset="1" stop-color="white" stop-opacity="0.1"/>
</radialGradient>
<clipPath id="clip0_1930_95608">
<rect width="28.2617" height="28" fill="white"/>
</clipPath>
</defs>
</svg>
