<svg width="18" height="18" viewBox="0 0 18 18" fill="none" xmlns="http://www.w3.org/2000/svg">
<path d="M5.4 18C3.88333 18 2.604 17.4793 1.562 16.438C0.52 15.3967 -0.000666027 14.1173 6.39386e-07 12.6C6.39386e-07 11.9667 0.108334 11.35 0.325001 10.75C0.541667 10.15 0.850001 9.60833 1.25 9.125L4.8 4.85L3.1 1.45C2.93333 1.11667 2.946 0.791667 3.138 0.475C3.33 0.158333 3.61733 0 4 0H14C14.3833 0 14.671 0.158333 14.863 0.475C15.055 0.791667 15.0673 1.11667 14.9 1.45L13.2 4.85L16.75 9.125C17.15 9.60833 17.4583 10.15 17.675 10.75C17.8917 11.35 18 11.9667 18 12.6C18 14.1167 17.475 15.396 16.425 16.438C15.375 17.48 14.1 18.0007 12.6 18H5.4ZM9 13C8.45 13 7.97933 12.8043 7.588 12.413C7.19667 12.0217 7.00067 11.5507 7 11C6.99933 10.4493 7.19533 9.97867 7.588 9.588C7.98067 9.19733 8.45133 9.00133 9 9C9.54867 8.99867 10.0197 9.19467 10.413 9.588C10.8063 9.98133 11.002 10.452 11 11C10.998 11.548 10.8023 12.019 10.413 12.413C10.0237 12.807 9.55267 13.0027 9 13ZM6.625 4H11.375L12.375 2H5.625L6.625 4ZM5.4 16H12.6C13.55 16 14.3543 15.671 15.013 15.013C15.6717 14.355 16.0007 13.5507 16 12.6C16 12.2 15.929 11.8127 15.787 11.438C15.645 11.0633 15.4493 10.7257 15.2 10.425L11.525 6H6.5L2.8 10.4C2.55 10.7 2.35433 11.0417 2.213 11.425C2.07167 11.8083 2.00067 12.2 2 12.6C2 13.55 2.32933 14.3543 2.988 15.013C3.64667 15.6717 4.45067 16.0007 5.4 16Z" fill="url(#paint0_linear_1717_48930)"/>
<path d="M5.4 18C3.88333 18 2.604 17.4793 1.562 16.438C0.52 15.3967 -0.000666027 14.1173 6.39386e-07 12.6C6.39386e-07 11.9667 0.108334 11.35 0.325001 10.75C0.541667 10.15 0.850001 9.60833 1.25 9.125L4.8 4.85L3.1 1.45C2.93333 1.11667 2.946 0.791667 3.138 0.475C3.33 0.158333 3.61733 0 4 0H14C14.3833 0 14.671 0.158333 14.863 0.475C15.055 0.791667 15.0673 1.11667 14.9 1.45L13.2 4.85L16.75 9.125C17.15 9.60833 17.4583 10.15 17.675 10.75C17.8917 11.35 18 11.9667 18 12.6C18 14.1167 17.475 15.396 16.425 16.438C15.375 17.48 14.1 18.0007 12.6 18H5.4ZM9 13C8.45 13 7.97933 12.8043 7.588 12.413C7.19667 12.0217 7.00067 11.5507 7 11C6.99933 10.4493 7.19533 9.97867 7.588 9.588C7.98067 9.19733 8.45133 9.00133 9 9C9.54867 8.99867 10.0197 9.19467 10.413 9.588C10.8063 9.98133 11.002 10.452 11 11C10.998 11.548 10.8023 12.019 10.413 12.413C10.0237 12.807 9.55267 13.0027 9 13ZM6.625 4H11.375L12.375 2H5.625L6.625 4ZM5.4 16H12.6C13.55 16 14.3543 15.671 15.013 15.013C15.6717 14.355 16.0007 13.5507 16 12.6C16 12.2 15.929 11.8127 15.787 11.438C15.645 11.0633 15.4493 10.7257 15.2 10.425L11.525 6H6.5L2.8 10.4C2.55 10.7 2.35433 11.0417 2.213 11.425C2.07167 11.8083 2.00067 12.2 2 12.6C2 13.55 2.32933 14.3543 2.988 15.013C3.64667 15.6717 4.45067 16.0007 5.4 16Z" fill="url(#paint1_radial_1717_48930)"/>
<defs>
<linearGradient id="paint0_linear_1717_48930" x1="9.05672" y1="1.98" x2="4.42092" y2="15.9393" gradientUnits="userSpaceOnUse">
<stop offset="0.0192796" stop-color="#FD8240"/>
<stop offset="0.972407" stop-color="#EE4B2F"/>
</linearGradient>
<radialGradient id="paint1_radial_1717_48930" cx="0" cy="0" r="1" gradientUnits="userSpaceOnUse" gradientTransform="translate(8.94328 16.38) rotate(-90.1047) scale(20.7 17.6829)">
<stop stop-color="white" stop-opacity="0"/>
<stop offset="1" stop-color="white" stop-opacity="0.1"/>
</radialGradient>
</defs>
</svg>
