<svg width="20" height="20" viewBox="0 0 20 20" fill="none" xmlns="http://www.w3.org/2000/svg">
<g opacity="0.7">
<path d="M11.9286 3.31836C9.96114 6.67832 7.13888 9.24422 3.8544 10.6591C3.55335 10.7869 3.24348 10.907 2.94465 11.0425C2.49726 11.2311 2.08543 11.5179 1.73165 11.8871C0.518646 13.2428 0.849464 15.7025 2.46055 16.4027C3.07146 16.6672 3.64819 16.4474 4.25689 16.3069L4.41348 16.2724C5.06703 16.1267 5.72572 16.013 6.38957 15.9312C8.28616 15.6836 10.2024 15.7214 12.0907 16.0437C13.3541 16.2656 14.5685 16.769 15.6668 17.5259" stroke="#6D7486" stroke-opacity="0.7" stroke-width="1.6" stroke-miterlimit="10"/>
<path d="M14.6474 15.8633C13.9295 14.5932 13.4278 13.1455 13.0606 11.6875C13.0451 11.6313 13.0319 11.5738 13.0176 11.5176" stroke="#6D7486" stroke-opacity="0.7" stroke-width="1.6" stroke-miterlimit="10"/>
<path d="M16.9738 18.2938C18.0931 17.9042 18.0377 13.8748 16.8501 9.29384C15.6625 4.71288 13.7924 1.31511 12.6732 1.70472C11.5539 2.09432 11.6092 6.12376 12.7968 10.7047C13.9844 15.2857 15.8545 18.6834 16.9738 18.2938Z" stroke="#6D7486" stroke-opacity="0.7" stroke-width="1.6" stroke-miterlimit="10"/>
<path d="M12.3516 8.75489L12.721 8.65778C13.2723 8.51339 13.8601 9.12672 14.0365 10.0301C14.0919 10.3062 14.1013 10.592 14.0641 10.8722C13.9891 11.4114 13.7333 11.8266 13.3606 11.925L13.1532 11.98H13.1378" stroke="#6D7486" stroke-opacity="0.7" stroke-width="1.6" stroke-miterlimit="10"/>
<path d="M4.41415 16.2787L2.94531 11.0488" stroke="#6D7486" stroke-opacity="0.7" stroke-width="1.6" stroke-miterlimit="10"/>
</g>
</svg>
