<svg width="20" height="20" viewBox="0 0 20 20" fill="none" xmlns="http://www.w3.org/2000/svg">
<path d="M11.9286 3.31836C9.96114 6.67832 7.13888 9.24422 3.8544 10.6591C3.55335 10.7869 3.24348 10.907 2.94465 11.0425C2.49726 11.2311 2.08543 11.5179 1.73165 11.8871C0.518646 13.2428 0.849464 15.7025 2.46055 16.4027C3.07146 16.6672 3.64819 16.4474 4.25689 16.3069L4.41348 16.2724C5.06703 16.1267 5.72572 16.013 6.38957 15.9312C8.28616 15.6836 10.2024 15.7214 12.0907 16.0437C13.3541 16.2656 14.5685 16.769 15.6668 17.5259" stroke="url(#paint0_linear_3621_6982)" stroke-width="1.6" stroke-miterlimit="10"/>
<path d="M11.9286 3.31836C9.96114 6.67832 7.13888 9.24422 3.8544 10.6591C3.55335 10.7869 3.24348 10.907 2.94465 11.0425C2.49726 11.2311 2.08543 11.5179 1.73165 11.8871C0.518646 13.2428 0.849464 15.7025 2.46055 16.4027C3.07146 16.6672 3.64819 16.4474 4.25689 16.3069L4.41348 16.2724C5.06703 16.1267 5.72572 16.013 6.38957 15.9312C8.28616 15.6836 10.2024 15.7214 12.0907 16.0437C13.3541 16.2656 14.5685 16.769 15.6668 17.5259" stroke="url(#paint1_radial_3621_6982)" stroke-width="1.6" stroke-miterlimit="10"/>
<path d="M14.6479 15.8633C13.93 14.5932 13.4283 13.1455 13.0611 11.6875C13.0456 11.6313 13.0324 11.5738 13.0181 11.5176" stroke="url(#paint2_linear_3621_6982)" stroke-width="1.6" stroke-miterlimit="10"/>
<path d="M14.6479 15.8633C13.93 14.5932 13.4283 13.1455 13.0611 11.6875C13.0456 11.6313 13.0324 11.5738 13.0181 11.5176" stroke="url(#paint3_radial_3621_6982)" stroke-width="1.6" stroke-miterlimit="10"/>
<path d="M16.9733 18.2938C18.0926 17.9042 18.0372 13.8748 16.8496 9.29384C15.6621 4.71288 13.792 1.31511 12.6727 1.70472C11.5534 2.09432 11.6087 6.12376 12.7963 10.7047C13.9839 15.2857 15.854 18.6834 16.9733 18.2938Z" stroke="url(#paint4_linear_3621_6982)" stroke-width="1.6" stroke-miterlimit="10"/>
<path d="M16.9733 18.2938C18.0926 17.9042 18.0372 13.8748 16.8496 9.29384C15.6621 4.71288 13.792 1.31511 12.6727 1.70472C11.5534 2.09432 11.6087 6.12376 12.7963 10.7047C13.9839 15.2857 15.854 18.6834 16.9733 18.2938Z" stroke="url(#paint5_radial_3621_6982)" stroke-width="1.6" stroke-miterlimit="10"/>
<path d="M12.3508 8.75489L12.7202 8.65778C13.2716 8.51339 13.8594 9.12672 14.0358 10.0301C14.0912 10.3062 14.1006 10.592 14.0634 10.8722C13.9884 11.4114 13.7325 11.8266 13.3598 11.925L13.1525 11.98H13.1371" stroke="url(#paint6_linear_3621_6982)" stroke-width="1.6" stroke-miterlimit="10"/>
<path d="M12.3508 8.75489L12.7202 8.65778C13.2716 8.51339 13.8594 9.12672 14.0358 10.0301C14.0912 10.3062 14.1006 10.592 14.0634 10.8722C13.9884 11.4114 13.7325 11.8266 13.3598 11.925L13.1525 11.98H13.1371" stroke="url(#paint7_radial_3621_6982)" stroke-width="1.6" stroke-miterlimit="10"/>
<path d="M4.41341 16.2787L2.94458 11.0488" stroke="url(#paint8_linear_3621_6982)" stroke-width="1.6" stroke-miterlimit="10"/>
<path d="M4.41341 16.2787L2.94458 11.0488" stroke="url(#paint9_radial_3621_6982)" stroke-width="1.6" stroke-miterlimit="10"/>
<defs>
<linearGradient id="paint0_linear_3621_6982" x1="8.37962" y1="4.88119" x2="4.8133" y2="15.9673" gradientUnits="userSpaceOnUse">
<stop offset="0.0192796" stop-color="#2E78E9"/>
<stop offset="0.972407" stop-color="#2863FA"/>
</linearGradient>
<radialGradient id="paint1_radial_3621_6982" cx="0" cy="0" r="1" gradientUnits="userSpaceOnUse" gradientTransform="translate(8.28719 16.2472) rotate(-90.1081) scale(16.3387 14.4084)">
<stop stop-color="white" stop-opacity="0"/>
<stop offset="1" stop-color="white" stop-opacity="0.1"/>
</radialGradient>
<linearGradient id="paint2_linear_3621_6982" x1="13.8381" y1="11.9956" x2="11.981" y2="14.093" gradientUnits="userSpaceOnUse">
<stop offset="0.0192796" stop-color="#2E78E9"/>
<stop offset="0.972407" stop-color="#2863FA"/>
</linearGradient>
<radialGradient id="paint3_radial_3621_6982" cx="0" cy="0" r="1" gradientUnits="userSpaceOnUse" gradientTransform="translate(13.8278 15.4722) rotate(-90.0393) scale(4.99755 1.60112)">
<stop stop-color="white" stop-opacity="0"/>
<stop offset="1" stop-color="white" stop-opacity="0.1"/>
</radialGradient>
<linearGradient id="paint4_linear_3621_6982" x1="13.1585" y1="3.52507" x2="7.63598" y2="10.9116" gradientUnits="userSpaceOnUse">
<stop offset="0.0192796" stop-color="#2E78E9"/>
<stop offset="0.972407" stop-color="#2863FA"/>
</linearGradient>
<radialGradient id="paint5_radial_3621_6982" cx="0" cy="0" r="1" gradientUnits="userSpaceOnUse" gradientTransform="translate(16.5735 16.8053) rotate(-104.56) scale(19.7074 4.2025)">
<stop stop-color="white" stop-opacity="0"/>
<stop offset="1" stop-color="white" stop-opacity="0.1"/>
</radialGradient>
<linearGradient id="paint6_linear_3621_6982" x1="13.2237" y1="9.00448" x2="11.9167" y2="11.0467" gradientUnits="userSpaceOnUse">
<stop offset="0.0192796" stop-color="#2E78E9"/>
<stop offset="0.972407" stop-color="#2863FA"/>
</linearGradient>
<radialGradient id="paint7_radial_3621_6982" cx="0" cy="0" r="1" gradientUnits="userSpaceOnUse" gradientTransform="translate(13.2128 11.6791) rotate(-90.0543) scale(3.84475 1.7043)">
<stop stop-color="white" stop-opacity="0"/>
<stop offset="1" stop-color="white" stop-opacity="0.1"/>
</radialGradient>
<linearGradient id="paint8_linear_3621_6982" x1="3.68363" y1="11.6241" x2="1.46328" y2="13.5019" gradientUnits="userSpaceOnUse">
<stop offset="0.0192796" stop-color="#2E78E9"/>
<stop offset="0.972407" stop-color="#2863FA"/>
</linearGradient>
<radialGradient id="paint9_radial_3621_6982" cx="0" cy="0" r="1" gradientUnits="userSpaceOnUse" gradientTransform="translate(3.67437 15.808) rotate(-90.0294) scale(6.01439 1.44296)">
<stop stop-color="white" stop-opacity="0"/>
<stop offset="1" stop-color="white" stop-opacity="0.1"/>
</radialGradient>
</defs>
</svg>
