<svg width="24" height="24" viewBox="0 0 24 24" fill="none" xmlns="http://www.w3.org/2000/svg">
<path d="M9.2069 16.4545C9.2069 17.8604 8.09533 19 6.72414 19C5.35295 19 4.24138 17.8604 4.24138 16.4545M9.2069 16.4545C9.2069 15.0487 8.09533 13.9091 6.72414 13.9091C5.35295 13.9091 4.24138 15.0487 4.24138 16.4545M9.2069 16.4545H14.7931M4.24138 16.4545H3V6C3 5.44771 3.44772 5 4 5H14.7931V16.4545M20.3793 16.4545C20.3793 17.8604 19.2677 19 17.8966 19C16.5254 19 15.4138 17.8604 15.4138 16.4545M20.3793 16.4545C20.3793 15.0487 19.2677 13.9091 17.8966 13.9091C16.5254 13.9091 15.4138 15.0487 15.4138 16.4545M20.3793 16.4545H21V11.3636L17.8966 8.18182H14.7931V16.4545M15.4138 16.4545H14.7931" stroke="url(#paint0_linear_1073_47063)" stroke-width="1.6" stroke-linecap="round" stroke-linejoin="round"/>
<path d="M9.2069 16.4545C9.2069 17.8604 8.09533 19 6.72414 19C5.35295 19 4.24138 17.8604 4.24138 16.4545M9.2069 16.4545C9.2069 15.0487 8.09533 13.9091 6.72414 13.9091C5.35295 13.9091 4.24138 15.0487 4.24138 16.4545M9.2069 16.4545H14.7931M4.24138 16.4545H3V6C3 5.44771 3.44772 5 4 5H14.7931V16.4545M20.3793 16.4545C20.3793 17.8604 19.2677 19 17.8966 19C16.5254 19 15.4138 17.8604 15.4138 16.4545M20.3793 16.4545C20.3793 15.0487 19.2677 13.9091 17.8966 13.9091C16.5254 13.9091 15.4138 15.0487 15.4138 16.4545M20.3793 16.4545H21V11.3636L17.8966 8.18182H14.7931V16.4545M15.4138 16.4545H14.7931" stroke="url(#paint1_radial_1073_47063)" stroke-width="1.6" stroke-linecap="round" stroke-linejoin="round"/>
<defs>
<linearGradient id="paint0_linear_1073_47063" x1="12.0567" y1="6.54" x2="9.13781" y2="17.8407" gradientUnits="userSpaceOnUse">
<stop offset="0.0192796" stop-color="#FD8240"/>
<stop offset="0.972407" stop-color="#EE4B2F"/>
</linearGradient>
<radialGradient id="paint1_radial_1073_47063" cx="0" cy="0" r="1" gradientUnits="userSpaceOnUse" gradientTransform="translate(11.9433 17.74) rotate(-90.1346) scale(16.1 17.6829)">
<stop stop-color="white" stop-opacity="0"/>
<stop offset="1" stop-color="white" stop-opacity="0.1"/>
</radialGradient>
</defs>
</svg>
