<svg width="18" height="18" viewBox="0 0 18 18" fill="none" xmlns="http://www.w3.org/2000/svg">
<path d="M3.15 4.5C2.79196 4.5 2.44858 4.35777 2.19541 4.10459C1.94223 3.85142 1.8 3.50804 1.8 3.15C1.8 2.79196 1.94223 2.44858 2.19541 2.19541C2.44858 1.94223 2.79196 1.8 3.15 1.8C3.50804 1.8 3.85142 1.94223 4.10459 2.19541C4.35777 2.44858 4.5 2.79196 4.5 3.15C4.5 3.50804 4.35777 3.85142 4.10459 4.10459C3.85142 4.35777 3.50804 4.5 3.15 4.5ZM17.469 8.622L9.369 0.522C9.045 0.198 8.595 0 8.1 0H1.8C0.801 0 0 0.801 0 1.8V8.1C0 8.595 0.198 9.045 0.531 9.369L8.622 17.469C8.955 17.793 9.405 18 9.9 18C10.395 18 10.845 17.793 11.169 17.469L17.469 11.169C17.802 10.845 18 10.395 18 9.9C18 9.396 17.793 8.946 17.469 8.622Z" fill="url(#paint0_linear_665_23294)"/>
<path d="M3.15 4.5C2.79196 4.5 2.44858 4.35777 2.19541 4.10459C1.94223 3.85142 1.8 3.50804 1.8 3.15C1.8 2.79196 1.94223 2.44858 2.19541 2.19541C2.44858 1.94223 2.79196 1.8 3.15 1.8C3.50804 1.8 3.85142 1.94223 4.10459 2.19541C4.35777 2.44858 4.5 2.79196 4.5 3.15C4.5 3.50804 4.35777 3.85142 4.10459 4.10459C3.85142 4.35777 3.50804 4.5 3.15 4.5ZM17.469 8.622L9.369 0.522C9.045 0.198 8.595 0 8.1 0H1.8C0.801 0 0 0.801 0 1.8V8.1C0 8.595 0.198 9.045 0.531 9.369L8.622 17.469C8.955 17.793 9.405 18 9.9 18C10.395 18 10.845 17.793 11.169 17.469L17.469 11.169C17.802 10.845 18 10.395 18 9.9C18 9.396 17.793 8.946 17.469 8.622Z" fill="url(#paint1_radial_665_23294)"/>
<path d="M0.88475 9.01564L0.884786 9.01561L0.879677 9.01064C0.64262 8.77999 0.5 8.4589 0.5 8.1V1.8C0.5 1.07714 1.07714 0.5 1.8 0.5H8.1C8.45956 0.5 8.78319 0.643297 9.01545 0.875553L17.1154 8.97555C17.3513 9.21144 17.5 9.5364 17.5 9.9C17.5 10.2589 17.3574 10.58 17.1203 10.8106L17.1203 10.8106L17.1154 10.8154L10.8154 17.1154C10.5786 17.3523 10.2533 17.5 9.9 17.5C9.54888 17.5 9.2218 17.3539 8.97306 17.113L0.88475 9.01564ZM1.84185 4.45815C2.18879 4.80509 2.65935 5 3.15 5C3.64065 5 4.11121 4.80509 4.45815 4.45815C4.80509 4.11121 5 3.64065 5 3.15C5 2.65935 4.80509 2.18879 4.45815 1.84185C4.11121 1.49491 3.64065 1.3 3.15 1.3C2.65935 1.3 2.18879 1.49491 1.84185 1.84185C1.49491 2.18879 1.3 2.65935 1.3 3.15C1.3 3.64065 1.49491 4.11121 1.84185 4.45815Z" stroke="white" stroke-opacity="0.15"/>
<defs>
<linearGradient id="paint0_linear_665_23294" x1="9.05672" y1="1.98" x2="4.42092" y2="15.9393" gradientUnits="userSpaceOnUse">
<stop offset="0.0192796" stop-color="#2E78E9"/>
<stop offset="0.972407" stop-color="#2863FA"/>
</linearGradient>
<radialGradient id="paint1_radial_665_23294" cx="0" cy="0" r="1" gradientUnits="userSpaceOnUse" gradientTransform="translate(8.94328 16.38) rotate(-90.1047) scale(20.7 17.6829)">
<stop stop-color="white" stop-opacity="0"/>
<stop offset="1" stop-color="white" stop-opacity="0.1"/>
</radialGradient>
</defs>
</svg>
