<svg width="25" height="24" viewBox="0 0 25 24" fill="none" xmlns="http://www.w3.org/2000/svg">
<path d="M21 2H5C3.9 2 3 2.9 3 4V16C3 17.1 3.9 18 5 18H6C7.65685 18 9 19.3431 9 21C9 21.6 9.4 22 10 22H10.5C10.7 22 11 21.9 11.2 21.7L12.5569 20.3431C14.0571 18.8429 16.092 18 18.2137 18H21C22.1 18 23 17.1 23 16V4C23 2.9 22.1 2 21 2ZM12 11C12 12.1046 11.1046 13 10 13C8.89543 13 8 12.1046 8 11V9.5597C8 9.05926 8.10918 8.56485 8.31992 8.11095L9.0566 6.52425C9.20504 6.20454 9.52551 6 9.878 6C10.5406 6 10.9788 6.68818 10.6987 7.28859L10.4425 7.83742C10.1897 8.37912 10.5852 9 11.1829 9C11.6342 9 12 9.36581 12 9.81706V11ZM18 11C18 12.1046 17.1046 13 16 13C14.8954 13 14 12.1046 14 11V9.5597C14 9.05926 14.1092 8.56485 14.3199 8.11095L15.0566 6.52425C15.205 6.20454 15.5255 6 15.878 6C16.5406 6 16.9788 6.68818 16.6987 7.28859L16.4425 7.83742C16.1897 8.37912 16.5852 9 17.1829 9C17.6342 9 18 9.36581 18 9.81706V11Z" fill="url(#paint0_linear_665_23282)"/>
<path d="M21 2H5C3.9 2 3 2.9 3 4V16C3 17.1 3.9 18 5 18H6C7.65685 18 9 19.3431 9 21C9 21.6 9.4 22 10 22H10.5C10.7 22 11 21.9 11.2 21.7L12.5569 20.3431C14.0571 18.8429 16.092 18 18.2137 18H21C22.1 18 23 17.1 23 16V4C23 2.9 22.1 2 21 2ZM12 11C12 12.1046 11.1046 13 10 13C8.89543 13 8 12.1046 8 11V9.5597C8 9.05926 8.10918 8.56485 8.31992 8.11095L9.0566 6.52425C9.20504 6.20454 9.52551 6 9.878 6C10.5406 6 10.9788 6.68818 10.6987 7.28859L10.4425 7.83742C10.1897 8.37912 10.5852 9 11.1829 9C11.6342 9 12 9.36581 12 9.81706V11ZM18 11C18 12.1046 17.1046 13 16 13C14.8954 13 14 12.1046 14 11V9.5597C14 9.05926 14.1092 8.56485 14.3199 8.11095L15.0566 6.52425C15.205 6.20454 15.5255 6 15.878 6C16.5406 6 16.9788 6.68818 16.6987 7.28859L16.4425 7.83742C16.1897 8.37912 16.5852 9 17.1829 9C17.6342 9 18 9.36581 18 9.81706V11Z" fill="url(#paint1_radial_665_23282)"/>
<path d="M5 2.5H21C21.8239 2.5 22.5 3.17614 22.5 4V16C22.5 16.8239 21.8239 17.5 21 17.5H18.2137C15.9594 17.5 13.7974 18.3955 12.2033 19.9896L10.8464 21.3464L11.2 21.7L10.8464 21.3464C10.8033 21.3896 10.7394 21.4307 10.6643 21.4608C10.587 21.4917 10.5252 21.5 10.5 21.5H10C9.81362 21.5 9.69716 21.4401 9.62855 21.3714C9.55994 21.3028 9.5 21.1864 9.5 21C9.5 19.067 7.933 17.5 6 17.5H5C4.17614 17.5 3.5 16.8239 3.5 16V4C3.5 3.17614 4.17614 2.5 5 2.5ZM10 13.5C11.3807 13.5 12.5 12.3807 12.5 11V9.81706C12.5 9.08967 11.9103 8.5 11.1829 8.5C10.951 8.5 10.7975 8.25907 10.8956 8.04886L11.1517 7.50003C11.5866 6.56814 10.9064 5.5 9.878 5.5C9.33089 5.5 8.83349 5.81746 8.60309 6.3137L7.86641 7.90039C7.62504 8.42026 7.5 8.98653 7.5 9.5597V11C7.5 12.3807 8.61929 13.5 10 13.5ZM16 13.5C17.3807 13.5 18.5 12.3807 18.5 11V9.81706C18.5 9.08967 17.9103 8.5 17.1829 8.5C16.951 8.5 16.7975 8.25907 16.8956 8.04886L17.1517 7.50003C17.5866 6.56814 16.9064 5.5 15.878 5.5C15.3309 5.5 14.8335 5.81746 14.6031 6.3137L13.8664 7.90039C13.625 8.42026 13.5 8.98653 13.5 9.5597V11C13.5 12.3807 14.6193 13.5 16 13.5Z" stroke="white" stroke-opacity="0.15"/>
<defs>
<linearGradient id="paint0_linear_665_23282" x1="13.063" y1="4.2" x2="7.91214" y2="19.7104" gradientUnits="userSpaceOnUse">
<stop offset="0.0192796" stop-color="#2E78E9"/>
<stop offset="0.972407" stop-color="#2863FA"/>
</linearGradient>
<radialGradient id="paint1_radial_665_23282" cx="0" cy="0" r="1" gradientUnits="userSpaceOnUse" gradientTransform="translate(12.937 20.2) rotate(-90.1047) scale(23 19.6477)">
<stop stop-color="white" stop-opacity="0"/>
<stop offset="1" stop-color="white" stop-opacity="0.1"/>
</radialGradient>
</defs>
</svg>
