<svg width="20" height="16" viewBox="0 0 20 16" fill="none" xmlns="http://www.w3.org/2000/svg">
<path d="M16 0H4C1.79 0 0 1.79 0 4V12C0 14.21 1.79 16 4 16H16C18.21 16 20 14.21 20 12V4C20 1.79 18.21 0 16 0ZM14.14 9.77C13.9 9.97 13.57 10.05 13.26 9.97L4.45041 7.8132C3.23963 7.51677 2.75346 6 4 6H16C17.0689 6 16.9918 7.3758 16.1732 8.06308L14.14 9.77ZM4 2H16C17.1 2 18 2.9 18 4C18 4.24456 17.7331 4.40036 17.5073 4.30633C17.0422 4.11258 16.5345 4 16 4H4C3.46551 4 2.95783 4.11258 2.49265 4.30633C2.26689 4.40036 2 4.24456 2 4C2 2.9 2.9 2 4 2Z" fill="url(#paint0_linear_665_23272)"/>
<path d="M16 0H4C1.79 0 0 1.79 0 4V12C0 14.21 1.79 16 4 16H16C18.21 16 20 14.21 20 12V4C20 1.79 18.21 0 16 0ZM14.14 9.77C13.9 9.97 13.57 10.05 13.26 9.97L4.45041 7.8132C3.23963 7.51677 2.75346 6 4 6H16C17.0689 6 16.9918 7.3758 16.1732 8.06308L14.14 9.77ZM4 2H16C17.1 2 18 2.9 18 4C18 4.24456 17.7331 4.40036 17.5073 4.30633C17.0422 4.11258 16.5345 4 16 4H4C3.46551 4 2.95783 4.11258 2.49265 4.30633C2.26689 4.40036 2 4.24456 2 4C2 2.9 2.9 2 4 2Z" fill="url(#paint1_radial_665_23272)"/>
<path d="M14.4601 10.1541L14.4615 10.1529L16.4946 8.44602C17.0118 8.01181 17.3108 7.3537 17.2942 6.75985C17.2857 6.45675 17.1925 6.13528 16.9588 5.8847C16.7178 5.62631 16.3804 5.5 16 5.5H4C3.59298 5.5 3.21213 5.62636 2.97511 5.94045C2.74158 6.24993 2.73636 6.62493 2.82239 6.93081C2.99153 7.53219 3.56299 8.1107 4.33151 8.29885L13.1384 10.455C13.6077 10.5749 14.101 10.4534 14.4601 10.1541ZM4 0.5H16C17.9339 0.5 19.5 2.06614 19.5 4V12C19.5 13.9339 17.9339 15.5 16 15.5H4C2.06614 15.5 0.5 13.9339 0.5 12V4C0.5 2.06614 2.06614 0.5 4 0.5ZM16 1.5H4C2.62386 1.5 1.5 2.62386 1.5 4C1.5 4.65045 2.17643 4.97968 2.6849 4.76789C3.09405 4.59748 3.5366 4.5 4 4.5H16C16.4634 4.5 16.906 4.59748 17.3151 4.76789C17.8236 4.97968 18.5 4.65045 18.5 4C18.5 2.62386 17.3761 1.5 16 1.5Z" stroke="white" stroke-opacity="0.15"/>
<defs>
<linearGradient id="paint0_linear_665_23272" x1="10.063" y1="1.76" x2="6.6442" y2="14.6284" gradientUnits="userSpaceOnUse">
<stop offset="0.0192796" stop-color="#2E78E9"/>
<stop offset="0.972407" stop-color="#2863FA"/>
</linearGradient>
<radialGradient id="paint1_radial_665_23272" cx="0" cy="0" r="1" gradientUnits="userSpaceOnUse" gradientTransform="translate(9.93697 14.56) rotate(-90.1308) scale(18.4 19.6477)">
<stop stop-color="white" stop-opacity="0"/>
<stop offset="1" stop-color="white" stop-opacity="0.1"/>
</radialGradient>
</defs>
</svg>
