<svg width="20" height="21" viewBox="0 0 20 21" fill="none" xmlns="http://www.w3.org/2000/svg">
<path d="M5.5 15.5625H14.5M9.30457 1.71117L1.50457 6.98603C1.18802 7.2001 1 7.54666 1 7.91605V17.7882C1 18.7336 1.80589 19.5 2.8 19.5H17.2C18.1941 19.5 19 18.7336 19 17.7882V7.91605C19 7.54665 18.812 7.2001 18.4954 6.98603L10.6954 1.71117C10.2791 1.42961 9.72092 1.42961 9.30457 1.71117Z" stroke="url(#paint0_linear_3673_2506)" stroke-width="1.8" stroke-linecap="round" stroke-linejoin="round"/>
<path d="M5.5 15.5625H14.5M9.30457 1.71117L1.50457 6.98603C1.18802 7.2001 1 7.54666 1 7.91605V17.7882C1 18.7336 1.80589 19.5 2.8 19.5H17.2C18.1941 19.5 19 18.7336 19 17.7882V7.91605C19 7.54665 18.812 7.2001 18.4954 6.98603L10.6954 1.71117C10.2791 1.42961 9.72092 1.42961 9.30457 1.71117Z" stroke="url(#paint1_radial_3673_2506)" stroke-width="1.8" stroke-linecap="round" stroke-linejoin="round"/>
<defs>
<linearGradient id="paint0_linear_3673_2506" x1="10.0567" y1="3.48" x2="5.42092" y2="17.4393" gradientUnits="userSpaceOnUse">
<stop offset="0.0192796" stop-color="#2E78E9"/>
<stop offset="0.972407" stop-color="#2863FA"/>
</linearGradient>
<radialGradient id="paint1_radial_3673_2506" cx="0" cy="0" r="1" gradientUnits="userSpaceOnUse" gradientTransform="translate(9.94328 17.88) rotate(-90.1047) scale(20.7 17.6829)">
<stop stop-color="white" stop-opacity="0"/>
<stop offset="1" stop-color="white" stop-opacity="0.1"/>
</radialGradient>
</defs>
</svg>
