<svg width="18" height="17" viewBox="0 0 18 17" fill="none" xmlns="http://www.w3.org/2000/svg">
<path d="M12.2653 5.23941L12.2605 5.23938M14.6417 1.63859L10.2914 1.30396C9.90574 1.27429 9.52634 1.41464 9.25282 1.68816L2.18792 8.75307C1.67043 9.27055 1.67043 10.1095 2.18792 10.627L6.87282 15.3119C7.3903 15.8294 8.2293 15.8294 8.74679 15.3119L15.8117 8.24703C16.0852 7.97351 16.2256 7.59411 16.1959 7.20842L15.8613 2.85815C15.8111 2.2065 15.2934 1.68872 14.6417 1.63859Z" stroke="url(#paint0_linear_3673_3489)" stroke-width="1.8" stroke-linecap="round" stroke-linejoin="round"/>
<path d="M12.2653 5.23941L12.2605 5.23938M14.6417 1.63859L10.2914 1.30396C9.90574 1.27429 9.52634 1.41464 9.25282 1.68816L2.18792 8.75307C1.67043 9.27055 1.67043 10.1095 2.18792 10.627L6.87282 15.3119C7.3903 15.8294 8.2293 15.8294 8.74679 15.3119L15.8117 8.24703C16.0852 7.97351 16.2256 7.59411 16.1959 7.20842L15.8613 2.85815C15.8111 2.2065 15.2934 1.68872 14.6417 1.63859Z" stroke="url(#paint1_radial_3673_3489)" stroke-width="1.8" stroke-linecap="round" stroke-linejoin="round"/>
<defs>
<linearGradient id="paint0_linear_3673_3489" x1="9.04518" y1="2.88405" x2="5.33654" y2="14.0515" gradientUnits="userSpaceOnUse">
<stop offset="0.0192796" stop-color="#2E78E9"/>
<stop offset="0.972407" stop-color="#2863FA"/>
</linearGradient>
<radialGradient id="paint1_radial_3673_3489" cx="0" cy="0" r="1" gradientUnits="userSpaceOnUse" gradientTransform="translate(8.95442 14.404) rotate(-90.1047) scale(16.56 14.1463)">
<stop stop-color="white" stop-opacity="0"/>
<stop offset="1" stop-color="white" stop-opacity="0.1"/>
</radialGradient>
</defs>
</svg>
