<svg width="18" height="19" viewBox="0 0 18 19" fill="none" xmlns="http://www.w3.org/2000/svg">
<path d="M8.07937 2.10237L3.32937 4.56533C2.66625 4.90917 2.25 5.59388 2.25 6.34084V12.6592C2.25 13.4061 2.66625 14.0908 3.32937 14.4347L8.07937 16.8976C8.65663 17.197 9.34337 17.197 9.92063 16.8976L14.6706 14.4347C15.3338 14.0908 15.75 13.4061 15.75 12.6592V6.34084C15.75 5.59388 15.3338 4.90917 14.6706 4.56533L9.92063 2.10237C9.34337 1.80304 8.65663 1.80304 8.07937 2.10237Z" stroke="url(#paint0_linear_3673_3565)" stroke-width="1.6"/>
<path d="M8.07937 2.10237L3.32937 4.56533C2.66625 4.90917 2.25 5.59388 2.25 6.34084V12.6592C2.25 13.4061 2.66625 14.0908 3.32937 14.4347L8.07937 16.8976C8.65663 17.197 9.34337 17.197 9.92063 16.8976L14.6706 14.4347C15.3338 14.0908 15.75 13.4061 15.75 12.6592V6.34084C15.75 5.59388 15.3338 4.90917 14.6706 4.56533L9.92063 2.10237C9.34337 1.80304 8.65663 1.80304 8.07937 2.10237Z" stroke="url(#paint1_radial_3673_3565)" stroke-width="1.6"/>
<path d="M2.25 5L9 8.53571V17.375" stroke="url(#paint2_linear_3673_3565)" stroke-width="1.6"/>
<path d="M2.25 5L9 8.53571V17.375" stroke="url(#paint3_radial_3673_3565)" stroke-width="1.6"/>
<path d="M15.75 5L9 8.375" stroke="url(#paint4_linear_3673_3565)" stroke-width="1.6"/>
<path d="M15.75 5L9 8.375" stroke="url(#paint5_radial_3673_3565)" stroke-width="1.6"/>
<defs>
<linearGradient id="paint0_linear_3673_3565" x1="9.04254" y1="3.3575" x2="4.47403" y2="15.1489" gradientUnits="userSpaceOnUse">
<stop offset="0.0192796" stop-color="#2E78E9"/>
<stop offset="0.972407" stop-color="#2863FA"/>
</linearGradient>
<radialGradient id="paint1_radial_3673_3565" cx="0" cy="0" r="1" gradientUnits="userSpaceOnUse" gradientTransform="translate(8.95746 15.9575) rotate(-90.0897) scale(18.1125 13.2622)">
<stop stop-color="white" stop-opacity="0"/>
<stop offset="1" stop-color="white" stop-opacity="0.1"/>
</radialGradient>
<linearGradient id="paint2_linear_3673_3565" x1="5.64627" y1="6.36125" x2="0.913272" y2="14.1351" gradientUnits="userSpaceOnUse">
<stop offset="0.0192796" stop-color="#2E78E9"/>
<stop offset="0.972407" stop-color="#2863FA"/>
</linearGradient>
<radialGradient id="paint3_radial_3673_3565" cx="0" cy="0" r="1" gradientUnits="userSpaceOnUse" gradientTransform="translate(5.60373 16.2613) rotate(-90.0571) scale(14.2313 6.6311)">
<stop stop-color="white" stop-opacity="0"/>
<stop offset="1" stop-color="white" stop-opacity="0.1"/>
</radialGradient>
<linearGradient id="paint4_linear_3673_3565" x1="12.3963" y1="5.37125" x2="11.9267" y2="8.19931" gradientUnits="userSpaceOnUse">
<stop offset="0.0192796" stop-color="#2E78E9"/>
<stop offset="0.972407" stop-color="#2863FA"/>
</linearGradient>
<radialGradient id="paint5_radial_3673_3565" cx="0" cy="0" r="1" gradientUnits="userSpaceOnUse" gradientTransform="translate(12.3537 8.07125) rotate(-90.2093) scale(3.88128 6.63106)">
<stop stop-color="white" stop-opacity="0"/>
<stop offset="1" stop-color="white" stop-opacity="0.1"/>
</radialGradient>
</defs>
</svg>
